<?xml version="1.0" encoding="UTF-8" standalone="no"?>
<!DOCTYPE svg PUBLIC "-//W3C//DTD SVG 1.1//EN"
 "http://www.w3.org/Graphics/SVG/1.1/DTD/svg11.dtd">
<!-- Generated by graphviz version 2.40.1 (20161225.0304)
 -->
<!-- Title: twoDegreesRelationshipsDiagram Pages: 1 -->
<svg width="569pt" height="826pt"
 viewBox="0.00 0.00 569.00 825.70" xmlns="http://www.w3.org/2000/svg" xmlns:xlink="http://www.w3.org/1999/xlink">
<g id="graph0" class="graph" transform="scale(1 1) rotate(0) translate(4 821.7)">
<title>twoDegreesRelationshipsDiagram</title>
<polygon fill="#ffffff" stroke="transparent" points="-4,4 -4,-821.7 565,-821.7 565,4 -4,4"/>
<text text-anchor="middle" x="72.4936" y="-7.3" font-family="Helvetica,sans-Serif" font-size="11.00" fill="#000000">Generated by SchemaSpy</text>
<!-- correction_request -->
<g id="node1" class="node">
<title>correction_request</title>
<g id="a_node1"><a xlink:href="../../tables/correction_request.html" xlink:title="correction_request" target="_top">
<polygon fill="#ffffff" stroke="transparent" points="263,-547.7 263,-813.7 553,-813.7 553,-547.7 263,-547.7"/>
<polygon fill="#f5f5f5" stroke="transparent" points="265,-788.7 265,-811.7 551,-811.7 551,-788.7 265,-788.7"/>
<polygon fill="none" stroke="#000000" points="265,-788.7 265,-811.7 551,-811.7 551,-788.7 265,-788.7"/>
<text text-anchor="start" x="270" y="-797.3" font-family="Helvetica,sans-Serif" font-weight="bold" font-size="11.00" fill="#000000">correction_request</text>
<text text-anchor="start" x="516.0437" y="-796.8" font-family="Helvetica,sans-Serif" font-size="11.00" fill="#000000">[table]</text>
<polygon fill="none" stroke="#000000" points="265,-766.7 265,-788.7 457,-788.7 457,-766.7 265,-766.7"/>
<image xlink:href="../../images/primaryKeys.png" width="11px" height="12px" preserveAspectRatio="xMinYMin meet" x="270" y="-783.7"/>
<text text-anchor="start" x="285" y="-773.8" font-family="Helvetica,sans-Serif" font-size="11.00" fill="#000000">id</text>
<polygon fill="none" stroke="#000000" points="457,-766.7 457,-788.7 551,-788.7 551,-766.7 457,-766.7"/>
<text text-anchor="start" x="460" y="-774.4" font-family="Helvetica,sans-Serif" font-size="11.00" fill="#000000">serial[10]</text>
<polygon fill="#ffffff" stroke="transparent" points="265,-744.7 265,-766.7 457,-766.7 457,-744.7 265,-744.7"/>
<polygon fill="none" stroke="#000000" points="265,-744.7 265,-766.7 457,-766.7 457,-744.7 265,-744.7"/>
<image xlink:href="../../images/foreignKeys.png" width="11px" height="12px" preserveAspectRatio="xMinYMin meet" x="270" y="-761.7"/>
<text text-anchor="start" x="285" y="-751.8" font-family="Helvetica,sans-Serif" font-size="11.00" fill="#000000">report_id</text>
<polygon fill="none" stroke="#000000" points="457,-744.7 457,-766.7 551,-766.7 551,-744.7 457,-744.7"/>
<text text-anchor="start" x="459.9758" y="-752.4" font-family="Helvetica,sans-Serif" font-size="11.00" fill="#000000">uuid[2147483647]</text>
<polygon fill="none" stroke="#000000" points="265,-722.7 265,-744.7 457,-744.7 457,-722.7 265,-722.7"/>
<text text-anchor="start" x="285" y="-729.8" font-family="Helvetica,sans-Serif" font-size="11.00" fill="#000000">description_of_change</text>
<polygon fill="none" stroke="#000000" points="457,-722.7 457,-744.7 551,-744.7 551,-722.7 457,-722.7"/>
<text text-anchor="start" x="460" y="-730.4" font-family="Helvetica,sans-Serif" font-size="11.00" fill="#000000">text[2147483647]</text>
<polygon fill="#ffffff" stroke="transparent" points="265,-700.7 265,-722.7 457,-722.7 457,-700.7 265,-700.7"/>
<polygon fill="none" stroke="#000000" points="265,-700.7 265,-722.7 457,-722.7 457,-700.7 265,-700.7"/>
<text text-anchor="start" x="285" y="-707.8" font-family="Helvetica,sans-Serif" font-size="11.00" fill="#000000">correction_requested_at</text>
<polygon fill="none" stroke="#000000" points="457,-700.7 457,-722.7 551,-722.7 551,-700.7 457,-700.7"/>
<text text-anchor="start" x="460" y="-708.4" font-family="Helvetica,sans-Serif" font-size="11.00" fill="#000000">timestamp[29,6]</text>
<polygon fill="none" stroke="#000000" points="265,-678.7 265,-700.7 457,-700.7 457,-678.7 265,-678.7"/>
<text text-anchor="start" x="285" y="-685.8" font-family="Helvetica,sans-Serif" font-size="11.00" fill="#000000">correction_requested_by</text>
<polygon fill="none" stroke="#000000" points="457,-678.7 457,-700.7 551,-700.7 551,-678.7 457,-678.7"/>
<text text-anchor="start" x="460" y="-686.4" font-family="Helvetica,sans-Serif" font-size="11.00" fill="#000000">varchar[120]</text>
<polygon fill="#ffffff" stroke="transparent" points="265,-656.7 265,-678.7 457,-678.7 457,-656.7 265,-656.7"/>
<polygon fill="none" stroke="#000000" points="265,-656.7 265,-678.7 457,-678.7 457,-656.7 265,-656.7"/>
<text text-anchor="start" x="285" y="-663.8" font-family="Helvetica,sans-Serif" font-size="11.00" fill="#000000">sequence</text>
<polygon fill="none" stroke="#000000" points="457,-656.7 457,-678.7 551,-678.7 551,-656.7 457,-656.7"/>
<text text-anchor="start" x="460" y="-664.4" font-family="Helvetica,sans-Serif" font-size="11.00" fill="#000000">int4[10]</text>
<polygon fill="none" stroke="#000000" points="265,-634.7 265,-656.7 457,-656.7 457,-634.7 265,-634.7"/>
<text text-anchor="start" x="285" y="-641.8" font-family="Helvetica,sans-Serif" font-size="11.00" fill="#000000">location</text>
<polygon fill="none" stroke="#000000" points="457,-634.7 457,-656.7 551,-656.7 551,-634.7 457,-634.7"/>
<text text-anchor="start" x="460" y="-642.4" font-family="Helvetica,sans-Serif" font-size="11.00" fill="#000000">varchar[20]</text>
<polygon fill="none" stroke="#000000" points="265,-612.7 265,-634.7 457,-634.7 457,-612.7 265,-612.7"/>
<text text-anchor="start" x="285" y="-619.8" font-family="Helvetica,sans-Serif" font-size="11.00" fill="#000000">user_action</text>
<polygon fill="none" stroke="#000000" points="457,-612.7 457,-634.7 551,-634.7 551,-612.7 457,-612.7"/>
<text text-anchor="start" x="460" y="-620.4" font-family="Helvetica,sans-Serif" font-size="11.00" fill="#000000">varchar[60]</text>
<polygon fill="none" stroke="#000000" points="265,-590.7 265,-612.7 457,-612.7 457,-590.7 265,-590.7"/>
<text text-anchor="start" x="285" y="-597.8" font-family="Helvetica,sans-Serif" font-size="11.00" fill="#000000">original_report_reference</text>
<polygon fill="none" stroke="#000000" points="457,-590.7 457,-612.7 551,-612.7 551,-590.7 457,-590.7"/>
<text text-anchor="start" x="460" y="-598.4" font-family="Helvetica,sans-Serif" font-size="11.00" fill="#000000">varchar[25]</text>
<polygon fill="none" stroke="#000000" points="265,-568.7 265,-590.7 457,-590.7 457,-568.7 265,-568.7"/>
<text text-anchor="start" x="285" y="-575.8" font-family="Helvetica,sans-Serif" font-size="11.00" fill="#000000">user_type</text>
<polygon fill="none" stroke="#000000" points="457,-568.7 457,-590.7 551,-590.7 551,-568.7 457,-568.7"/>
<text text-anchor="start" x="460" y="-576.4" font-family="Helvetica,sans-Serif" font-size="11.00" fill="#000000">varchar[60]</text>
<polygon fill="#ffffff" stroke="transparent" points="265,-549.7 265,-568.7 365,-568.7 365,-549.7 265,-549.7"/>
<polygon fill="none" stroke="#000000" points="265,-549.7 265,-568.7 365,-568.7 365,-549.7 265,-549.7"/>
<text text-anchor="start" x="268" y="-555.8" font-family="Helvetica,sans-Serif" font-size="11.00" fill="#000000">&lt; 1</text>
<polygon fill="#ffffff" stroke="transparent" points="365,-549.7 365,-568.7 457,-568.7 457,-549.7 365,-549.7"/>
<polygon fill="none" stroke="#000000" points="365,-549.7 365,-568.7 457,-568.7 457,-549.7 365,-549.7"/>
<text text-anchor="start" x="447.8862" y="-555.8" font-family="Helvetica,sans-Serif" font-size="11.00" fill="#000000"> &#160;</text>
<polygon fill="#ffffff" stroke="transparent" points="457,-549.7 457,-568.7 551,-568.7 551,-549.7 457,-549.7"/>
<polygon fill="none" stroke="#000000" points="457,-549.7 457,-568.7 551,-568.7 551,-549.7 457,-549.7"/>
<text text-anchor="start" x="532.4053" y="-555.8" font-family="Helvetica,sans-Serif" font-size="11.00" fill="#000000">0 &gt;</text>
<polygon fill="none" stroke="#000000" stroke-width="2" points="264,-548.7 264,-812.7 552,-812.7 552,-548.7 264,-548.7"/>
</a>
</g>
</g>
<!-- report -->
<g id="node2" class="node">
<title>report</title>
<g id="a_node2"><a xlink:href="../../tables/report.html" xlink:title="report" target="_top">
<polygon fill="#ffffff" stroke="transparent" points="8,-38.2 8,-363.2 214,-363.2 214,-38.2 8,-38.2"/>
<polygon fill="#f5f5f5" stroke="transparent" points="8,-339.7 8,-362.7 214,-362.7 214,-339.7 8,-339.7"/>
<polygon fill="none" stroke="#000000" points="8,-339.7 8,-362.7 214,-362.7 214,-339.7 8,-339.7"/>
<text text-anchor="start" x="13" y="-348.3" font-family="Helvetica,sans-Serif" font-weight="bold" font-size="11.00" fill="#000000">report</text>
<text text-anchor="start" x="179.0437" y="-347.8" font-family="Helvetica,sans-Serif" font-size="11.00" fill="#000000">[table]</text>
<polygon fill="none" stroke="#000000" points="8,-317.7 8,-339.7 214,-339.7 214,-317.7 8,-317.7"/>
<image xlink:href="../../images/primaryKeys.png" width="11px" height="12px" preserveAspectRatio="xMinYMin meet" x="13" y="-334.7"/>
<text text-anchor="start" x="28" y="-324.8" font-family="Helvetica,sans-Serif" font-size="11.00" fill="#000000">id</text>
<polygon fill="#ffffff" stroke="transparent" points="8,-295.7 8,-317.7 214,-317.7 214,-295.7 8,-295.7"/>
<polygon fill="none" stroke="#000000" points="8,-295.7 8,-317.7 214,-317.7 214,-295.7 8,-295.7"/>
<text text-anchor="start" x="28" y="-302.8" font-family="Helvetica,sans-Serif" font-size="11.00" fill="#000000">report_reference</text>
<polygon fill="#ffffff" stroke="transparent" points="8,-273.7 8,-295.7 214,-295.7 214,-273.7 8,-273.7"/>
<polygon fill="none" stroke="#000000" points="8,-273.7 8,-295.7 214,-295.7 214,-273.7 8,-273.7"/>
<text text-anchor="start" x="28" y="-280.8" font-family="Helvetica,sans-Serif" font-size="11.00" fill="#000000">location</text>
<polygon fill="#ffffff" stroke="transparent" points="8,-251.7 8,-273.7 214,-273.7 214,-251.7 8,-251.7"/>
<polygon fill="none" stroke="#000000" points="8,-251.7 8,-273.7 214,-273.7 214,-251.7 8,-251.7"/>
<text text-anchor="start" x="28" y="-258.8" font-family="Helvetica,sans-Serif" font-size="11.00" fill="#000000">type</text>
<polygon fill="#ffffff" stroke="transparent" points="8,-229.7 8,-251.7 214,-251.7 214,-229.7 8,-229.7"/>
<polygon fill="none" stroke="#000000" points="8,-229.7 8,-251.7 214,-251.7 214,-229.7 8,-229.7"/>
<text text-anchor="start" x="28" y="-236.8" font-family="Helvetica,sans-Serif" font-size="11.00" fill="#000000">source</text>
<polygon fill="#ffffff" stroke="transparent" points="8,-207.7 8,-229.7 214,-229.7 214,-207.7 8,-207.7"/>
<polygon fill="none" stroke="#000000" points="8,-207.7 8,-229.7 214,-229.7 214,-207.7 8,-207.7"/>
<text text-anchor="start" x="28" y="-214.8" font-family="Helvetica,sans-Serif" font-size="11.00" fill="#000000">status</text>
<polygon fill="#ffffff" stroke="transparent" points="8,-185.7 8,-207.7 214,-207.7 214,-185.7 8,-185.7"/>
<polygon fill="none" stroke="#000000" points="8,-185.7 8,-207.7 214,-207.7 214,-185.7 8,-185.7"/>
<text text-anchor="start" x="28" y="-192.8" font-family="Helvetica,sans-Serif" font-size="11.00" fill="#000000">incident_date_and_time</text>
<polygon fill="#ffffff" stroke="transparent" points="8,-163.7 8,-185.7 214,-185.7 214,-163.7 8,-163.7"/>
<polygon fill="none" stroke="#000000" points="8,-163.7 8,-185.7 214,-185.7 214,-163.7 8,-163.7"/>
<text text-anchor="start" x="28" y="-170.8" font-family="Helvetica,sans-Serif" font-size="11.00" fill="#000000">reported_at</text>
<polygon fill="#ffffff" stroke="transparent" points="8,-141.7 8,-163.7 214,-163.7 214,-141.7 8,-141.7"/>
<polygon fill="none" stroke="#000000" points="8,-141.7 8,-163.7 214,-163.7 214,-141.7 8,-141.7"/>
<text text-anchor="start" x="28" y="-148.8" font-family="Helvetica,sans-Serif" font-size="11.00" fill="#000000">reported_by</text>
<polygon fill="#ffffff" stroke="transparent" points="8,-119.7 8,-141.7 214,-141.7 214,-119.7 8,-119.7"/>
<polygon fill="none" stroke="#000000" points="8,-119.7 8,-141.7 214,-141.7 214,-119.7 8,-119.7"/>
<text text-anchor="start" x="28" y="-126.8" font-family="Helvetica,sans-Serif" font-size="11.00" fill="#000000">created_at</text>
<polygon fill="none" stroke="#000000" points="8,-97.7 8,-119.7 214,-119.7 214,-97.7 8,-97.7"/>
<image xlink:href="../../images/foreignKeys.png" width="11px" height="12px" preserveAspectRatio="xMinYMin meet" x="13" y="-114.7"/>
<text text-anchor="start" x="28" y="-104.8" font-family="Helvetica,sans-Serif" font-size="11.00" fill="#000000">duplicated_report_id</text>
<polygon fill="#ffffff" stroke="transparent" points="8,-75.7 8,-97.7 214,-97.7 214,-75.7 8,-75.7"/>
<polygon fill="none" stroke="#000000" points="8,-75.7 8,-97.7 214,-97.7 214,-75.7 8,-75.7"/>
<text text-anchor="start" x="28" y="-82.8" font-family="Helvetica,sans-Serif" font-size="11.00" fill="#000000">last_user_action</text>
<polygon fill="none" stroke="#000000" points="8,-56.7 8,-75.7 214,-75.7 214,-56.7 8,-56.7"/>
<text text-anchor="start" x="11" y="-62.8" font-family="Helvetica,sans-Serif" font-size="11.00" fill="#000000">...</text>
<polygon fill="#ffffff" stroke="transparent" points="8,-37.7 8,-56.7 105,-56.7 105,-37.7 8,-37.7"/>
<polygon fill="none" stroke="#000000" points="8,-37.7 8,-56.7 105,-56.7 105,-37.7 8,-37.7"/>
<text text-anchor="start" x="11" y="-43.8" font-family="Helvetica,sans-Serif" font-size="11.00" fill="#000000">&lt; 1</text>
<polygon fill="#ffffff" stroke="transparent" points="105,-37.7 105,-56.7 155,-56.7 155,-37.7 105,-37.7"/>
<polygon fill="none" stroke="#000000" points="105,-37.7 105,-56.7 155,-56.7 155,-37.7 105,-37.7"/>
<text text-anchor="start" x="145.8862" y="-43.8" font-family="Helvetica,sans-Serif" font-size="11.00" fill="#000000"> &#160;</text>
<polygon fill="#ffffff" stroke="transparent" points="155,-37.7 155,-56.7 214,-56.7 214,-37.7 155,-37.7"/>
<polygon fill="none" stroke="#000000" points="155,-37.7 155,-56.7 214,-56.7 214,-37.7 155,-37.7"/>
<text text-anchor="start" x="195.4053" y="-43.8" font-family="Helvetica,sans-Serif" font-size="11.00" fill="#000000">8 &gt;</text>
</a>
</g>
</g>
<!-- correction_request&#45;&gt;report -->
<g id="edge1" class="edge">
<title>correction_request:w&#45;&gt;report:e</title>
<path fill="none" stroke="#000000" d="M250.9444,-751.7455C184.5543,-708.6988 304.1505,-328.7 214,-328.7"/>
<polygon fill="#000000" stroke="#000000" points="257.299,-753.5333 264.025,-759.1655 261.1495,-754.6167 265,-755.7 265,-755.7 265,-755.7 261.1495,-754.6167 265.975,-752.2345 257.299,-753.5333 257.299,-753.5333"/>
<ellipse fill="none" stroke="#000000" cx="254.2186" cy="-752.6666" rx="3.2" ry="3.2"/>
</g>
<!-- description_addendum -->
<g id="node3" class="node">
<title>description_addendum</title>
<g id="a_node3"><a xlink:href="../../tables/description_addendum.html" xlink:title="description_addendum" target="_top">
<polygon fill="#ffffff" stroke="transparent" points="312,-465.2 312,-526.2 504,-526.2 504,-465.2 312,-465.2"/>
<polygon fill="#f5f5f5" stroke="transparent" points="312,-502.7 312,-525.7 504,-525.7 504,-502.7 312,-502.7"/>
<polygon fill="none" stroke="#000000" points="312,-502.7 312,-525.7 504,-525.7 504,-502.7 312,-502.7"/>
<text text-anchor="start" x="317" y="-511.3" font-family="Helvetica,sans-Serif" font-weight="bold" font-size="11.00" fill="#000000">description_addendum</text>
<text text-anchor="start" x="469.5219" y="-510.8" font-family="Helvetica,sans-Serif" font-size="11.00" fill="#000000">[table]</text>
<polygon fill="none" stroke="#000000" points="312,-483.7 312,-502.7 504,-502.7 504,-483.7 312,-483.7"/>
<text text-anchor="start" x="315" y="-489.8" font-family="Helvetica,sans-Serif" font-size="11.00" fill="#000000">...</text>
<polygon fill="#ffffff" stroke="transparent" points="312,-464.7 312,-483.7 406,-483.7 406,-464.7 312,-464.7"/>
<polygon fill="none" stroke="#000000" points="312,-464.7 312,-483.7 406,-483.7 406,-464.7 312,-464.7"/>
<text text-anchor="start" x="315" y="-470.8" font-family="Helvetica,sans-Serif" font-size="11.00" fill="#000000">&lt; 1</text>
<polygon fill="#ffffff" stroke="transparent" points="406,-464.7 406,-483.7 455,-483.7 455,-464.7 406,-464.7"/>
<polygon fill="none" stroke="#000000" points="406,-464.7 406,-483.7 455,-483.7 455,-464.7 406,-464.7"/>
<text text-anchor="start" x="445.8862" y="-470.8" font-family="Helvetica,sans-Serif" font-size="11.00" fill="#000000"> &#160;</text>
<polygon fill="#ffffff" stroke="transparent" points="455,-464.7 455,-483.7 504,-483.7 504,-464.7 455,-464.7"/>
<polygon fill="none" stroke="#000000" points="455,-464.7 455,-483.7 504,-483.7 504,-464.7 455,-464.7"/>
<text text-anchor="start" x="494.8862" y="-470.8" font-family="Helvetica,sans-Serif" font-size="11.00" fill="#000000"> &#160;</text>
</a>
</g>
</g>
<!-- description_addendum&#45;&gt;report -->
<g id="edge2" class="edge">
<title>description_addendum:w&#45;&gt;report:e</title>
<path fill="none" stroke="#000000" d="M297.5574,-491.388C278.2906,-487.4232 270.0891,-474.6027 255,-454.7 219.4218,-407.7719 272.8901,-328.7 214,-328.7"/>
<polygon fill="#000000" stroke="#000000" points="304.0328,-491.9762 311.6743,-496.2852 308.0164,-492.3381 312,-492.7 312,-492.7 312,-492.7 308.0164,-492.3381 312.3257,-489.1148 304.0328,-491.9762 304.0328,-491.9762"/>
<ellipse fill="none" stroke="#000000" cx="300.8459" cy="-491.6866" rx="3.2" ry="3.2"/>
</g>
<!-- history -->
<g id="node4" class="node">
<title>history</title>
<g id="a_node4"><a xlink:href="../../tables/history.html" xlink:title="history" target="_top">
<polygon fill="#ffffff" stroke="transparent" points="365,-383.2 365,-444.2 451,-444.2 451,-383.2 365,-383.2"/>
<polygon fill="#f5f5f5" stroke="transparent" points="365,-420.7 365,-443.7 451,-443.7 451,-420.7 365,-420.7"/>
<polygon fill="none" stroke="#000000" points="365,-420.7 365,-443.7 451,-443.7 451,-420.7 365,-420.7"/>
<text text-anchor="start" x="370" y="-429.3" font-family="Helvetica,sans-Serif" font-weight="bold" font-size="11.00" fill="#000000">history</text>
<text text-anchor="start" x="416.5219" y="-428.8" font-family="Helvetica,sans-Serif" font-size="11.00" fill="#000000">[table]</text>
<polygon fill="none" stroke="#000000" points="365,-401.7 365,-420.7 451,-420.7 451,-401.7 365,-401.7"/>
<text text-anchor="start" x="368" y="-407.8" font-family="Helvetica,sans-Serif" font-size="11.00" fill="#000000">...</text>
<polygon fill="#ffffff" stroke="transparent" points="365,-382.7 365,-401.7 402,-401.7 402,-382.7 365,-382.7"/>
<polygon fill="none" stroke="#000000" points="365,-382.7 365,-401.7 402,-401.7 402,-382.7 365,-382.7"/>
<text text-anchor="start" x="368" y="-388.8" font-family="Helvetica,sans-Serif" font-size="11.00" fill="#000000">&lt; 1</text>
<polygon fill="#ffffff" stroke="transparent" points="402,-382.7 402,-401.7 422,-401.7 422,-382.7 402,-382.7"/>
<polygon fill="none" stroke="#000000" points="402,-382.7 402,-401.7 422,-401.7 422,-382.7 402,-382.7"/>
<text text-anchor="start" x="412.8862" y="-388.8" font-family="Helvetica,sans-Serif" font-size="11.00" fill="#000000"> &#160;</text>
<polygon fill="#ffffff" stroke="transparent" points="422,-382.7 422,-401.7 451,-401.7 451,-382.7 422,-382.7"/>
<polygon fill="none" stroke="#000000" points="422,-382.7 422,-401.7 451,-401.7 451,-382.7 422,-382.7"/>
<text text-anchor="start" x="432.4053" y="-388.8" font-family="Helvetica,sans-Serif" font-size="11.00" fill="#000000">1 &gt;</text>
</a>
</g>
</g>
<!-- history&#45;&gt;report -->
<g id="edge3" class="edge">
<title>history:w&#45;&gt;report:e</title>
<path fill="none" stroke="#000000" d="M350.5746,-410.3998C310.0223,-408.5652 294.0408,-398.0917 255,-372.7 232.5928,-358.1266 240.7296,-328.7 214,-328.7"/>
<polygon fill="#000000" stroke="#000000" points="357.0017,-410.5335 364.9251,-414.2992 361.0009,-410.6168 365,-410.7 365,-410.7 365,-410.7 361.0009,-410.6168 365.0749,-407.1008 357.0017,-410.5335 357.0017,-410.5335"/>
<ellipse fill="none" stroke="#000000" cx="353.8024" cy="-410.4669" rx="3.2" ry="3.2"/>
</g>
<!-- prisoner_involvement -->
<g id="node5" class="node">
<title>prisoner_involvement</title>
<g id="a_node5"><a xlink:href="../../tables/prisoner_involvement.html" xlink:title="prisoner_involvement" target="_top">
<polygon fill="#ffffff" stroke="transparent" points="315.5,-301.2 315.5,-362.2 500.5,-362.2 500.5,-301.2 315.5,-301.2"/>
<polygon fill="#f5f5f5" stroke="transparent" points="316,-338.7 316,-361.7 501,-361.7 501,-338.7 316,-338.7"/>
<polygon fill="none" stroke="#000000" points="316,-338.7 316,-361.7 501,-361.7 501,-338.7 316,-338.7"/>
<text text-anchor="start" x="321" y="-347.3" font-family="Helvetica,sans-Serif" font-weight="bold" font-size="11.00" fill="#000000">prisoner_involvement</text>
<text text-anchor="start" x="466.5219" y="-346.8" font-family="Helvetica,sans-Serif" font-size="11.00" fill="#000000">[table]</text>
<polygon fill="none" stroke="#000000" points="316,-319.7 316,-338.7 501,-338.7 501,-319.7 316,-319.7"/>
<text text-anchor="start" x="319" y="-325.8" font-family="Helvetica,sans-Serif" font-size="11.00" fill="#000000">...</text>
<polygon fill="#ffffff" stroke="transparent" points="316,-300.7 316,-319.7 407,-319.7 407,-300.7 316,-300.7"/>
<polygon fill="none" stroke="#000000" points="316,-300.7 316,-319.7 407,-319.7 407,-300.7 316,-300.7"/>
<text text-anchor="start" x="319" y="-306.8" font-family="Helvetica,sans-Serif" font-size="11.00" fill="#000000">&lt; 1</text>
<polygon fill="#ffffff" stroke="transparent" points="407,-300.7 407,-319.7 454,-319.7 454,-300.7 407,-300.7"/>
<polygon fill="none" stroke="#000000" points="407,-300.7 407,-319.7 454,-319.7 454,-300.7 407,-300.7"/>
<text text-anchor="start" x="444.8862" y="-306.8" font-family="Helvetica,sans-Serif" font-size="11.00" fill="#000000"> &#160;</text>
<polygon fill="#ffffff" stroke="transparent" points="454,-300.7 454,-319.7 501,-319.7 501,-300.7 454,-300.7"/>
<polygon fill="none" stroke="#000000" points="454,-300.7 454,-319.7 501,-319.7 501,-300.7 454,-300.7"/>
<text text-anchor="start" x="491.8862" y="-306.8" font-family="Helvetica,sans-Serif" font-size="11.00" fill="#000000"> &#160;</text>
</a>
</g>
</g>
<!-- prisoner_involvement&#45;&gt;report -->
<g id="edge4" class="edge">
<title>prisoner_involvement:w&#45;&gt;report:e</title>
<path fill="none" stroke="#000000" d="M301.3538,-328.7C267.5435,-328.7 254.0208,-328.7 214,-328.7"/>
<polygon fill="#000000" stroke="#000000" points="308,-328.7001 316,-332.3 312,-328.7 316,-328.7 316,-328.7 316,-328.7 312,-328.7 316,-325.1 308,-328.7001 308,-328.7001"/>
<ellipse fill="none" stroke="#000000" cx="304.8" cy="-328.7001" rx="3.2" ry="3.2"/>
</g>
<!-- question -->
<g id="node6" class="node">
<title>question</title>
<g id="a_node6"><a xlink:href="../../tables/question.html" xlink:title="question" target="_top">
<polygon fill="#ffffff" stroke="transparent" points="359,-219.2 359,-280.2 457,-280.2 457,-219.2 359,-219.2"/>
<polygon fill="#f5f5f5" stroke="transparent" points="359,-256.7 359,-279.7 457,-279.7 457,-256.7 359,-256.7"/>
<polygon fill="none" stroke="#000000" points="359,-256.7 359,-279.7 457,-279.7 457,-256.7 359,-256.7"/>
<text text-anchor="start" x="364" y="-265.3" font-family="Helvetica,sans-Serif" font-weight="bold" font-size="11.00" fill="#000000">question</text>
<text text-anchor="start" x="422.5219" y="-264.8" font-family="Helvetica,sans-Serif" font-size="11.00" fill="#000000">[table]</text>
<polygon fill="none" stroke="#000000" points="359,-237.7 359,-256.7 457,-256.7 457,-237.7 359,-237.7"/>
<text text-anchor="start" x="362" y="-243.8" font-family="Helvetica,sans-Serif" font-size="11.00" fill="#000000">...</text>
<polygon fill="#ffffff" stroke="transparent" points="359,-218.7 359,-237.7 402,-237.7 402,-218.7 359,-218.7"/>
<polygon fill="none" stroke="#000000" points="359,-218.7 359,-237.7 402,-237.7 402,-218.7 359,-218.7"/>
<text text-anchor="start" x="362" y="-224.8" font-family="Helvetica,sans-Serif" font-size="11.00" fill="#000000">&lt; 1</text>
<polygon fill="#ffffff" stroke="transparent" points="402,-218.7 402,-237.7 425,-237.7 425,-218.7 402,-218.7"/>
<polygon fill="none" stroke="#000000" points="402,-218.7 402,-237.7 425,-237.7 425,-218.7 402,-218.7"/>
<text text-anchor="start" x="415.8862" y="-224.8" font-family="Helvetica,sans-Serif" font-size="11.00" fill="#000000"> &#160;</text>
<polygon fill="#ffffff" stroke="transparent" points="425,-218.7 425,-237.7 457,-237.7 457,-218.7 425,-218.7"/>
<polygon fill="none" stroke="#000000" points="425,-218.7 425,-237.7 457,-237.7 457,-218.7 425,-218.7"/>
<text text-anchor="start" x="438.4053" y="-224.8" font-family="Helvetica,sans-Serif" font-size="11.00" fill="#000000">1 &gt;</text>
</a>
</g>
</g>
<!-- question&#45;&gt;report -->
<g id="edge5" class="edge">
<title>question:w&#45;&gt;report:e</title>
<path fill="none" stroke="#000000" d="M344.576,-247.2316C306.0702,-250.2811 292.7865,-266.2748 255,-290.7 234.1345,-304.1875 238.8452,-328.7 214,-328.7"/>
<polygon fill="#000000" stroke="#000000" points="351.0054,-246.9947 359.1326,-250.2976 355.0027,-246.8474 359,-246.7 359,-246.7 359,-246.7 355.0027,-246.8474 358.8674,-243.1024 351.0054,-246.9947 351.0054,-246.9947"/>
<ellipse fill="none" stroke="#000000" cx="347.8076" cy="-247.1126" rx="3.2" ry="3.2"/>
</g>
<!-- staff_involvement -->
<g id="node7" class="node">
<title>staff_involvement</title>
<g id="a_node7"><a xlink:href="../../tables/staff_involvement.html" xlink:title="staff_involvement" target="_top">
<polygon fill="#ffffff" stroke="transparent" points="328,-137.2 328,-198.2 488,-198.2 488,-137.2 328,-137.2"/>
<polygon fill="#f5f5f5" stroke="transparent" points="328,-174.7 328,-197.7 488,-197.7 488,-174.7 328,-174.7"/>
<polygon fill="none" stroke="#000000" points="328,-174.7 328,-197.7 488,-197.7 488,-174.7 328,-174.7"/>
<text text-anchor="start" x="333" y="-183.3" font-family="Helvetica,sans-Serif" font-weight="bold" font-size="11.00" fill="#000000">staff_involvement</text>
<text text-anchor="start" x="453.5219" y="-182.8" font-family="Helvetica,sans-Serif" font-size="11.00" fill="#000000">[table]</text>
<polygon fill="none" stroke="#000000" points="328,-155.7 328,-174.7 488,-174.7 488,-155.7 328,-155.7"/>
<text text-anchor="start" x="331" y="-161.8" font-family="Helvetica,sans-Serif" font-size="11.00" fill="#000000">...</text>
<polygon fill="#ffffff" stroke="transparent" points="328,-136.7 328,-155.7 406,-155.7 406,-136.7 328,-136.7"/>
<polygon fill="none" stroke="#000000" points="328,-136.7 328,-155.7 406,-155.7 406,-136.7 328,-136.7"/>
<text text-anchor="start" x="331" y="-142.8" font-family="Helvetica,sans-Serif" font-size="11.00" fill="#000000">&lt; 1</text>
<polygon fill="#ffffff" stroke="transparent" points="406,-136.7 406,-155.7 447,-155.7 447,-136.7 406,-136.7"/>
<polygon fill="none" stroke="#000000" points="406,-136.7 406,-155.7 447,-155.7 447,-136.7 406,-136.7"/>
<text text-anchor="start" x="437.8862" y="-142.8" font-family="Helvetica,sans-Serif" font-size="11.00" fill="#000000"> &#160;</text>
<polygon fill="#ffffff" stroke="transparent" points="447,-136.7 447,-155.7 488,-155.7 488,-136.7 447,-136.7"/>
<polygon fill="none" stroke="#000000" points="447,-136.7 447,-155.7 488,-155.7 488,-136.7 447,-136.7"/>
<text text-anchor="start" x="478.8862" y="-142.8" font-family="Helvetica,sans-Serif" font-size="11.00" fill="#000000"> &#160;</text>
</a>
</g>
</g>
<!-- staff_involvement&#45;&gt;report -->
<g id="edge6" class="edge">
<title>staff_involvement:w&#45;&gt;report:e</title>
<path fill="none" stroke="#000000" d="M313.485,-165.5624C286.6841,-169.0784 275.4399,-183.3615 255,-208.7 219.6137,-252.5669 270.3604,-328.7 214,-328.7"/>
<polygon fill="#000000" stroke="#000000" points="320.0141,-165.1745 328.2135,-168.2937 324.007,-164.9373 328,-164.7 328,-164.7 328,-164.7 324.007,-164.9373 327.7865,-161.1063 320.0141,-165.1745 320.0141,-165.1745"/>
<ellipse fill="none" stroke="#000000" cx="316.8197" cy="-165.3643" rx="3.2" ry="3.2"/>
</g>
<!-- status_history -->
<g id="node8" class="node">
<title>status_history</title>
<g id="a_node8"><a xlink:href="../../tables/status_history.html" xlink:title="status_history" target="_top">
<polygon fill="#ffffff" stroke="transparent" points="341,-55.2 341,-116.2 475,-116.2 475,-55.2 341,-55.2"/>
<polygon fill="#f5f5f5" stroke="transparent" points="341,-92.7 341,-115.7 475,-115.7 475,-92.7 341,-92.7"/>
<polygon fill="none" stroke="#000000" points="341,-92.7 341,-115.7 475,-115.7 475,-92.7 341,-92.7"/>
<text text-anchor="start" x="346" y="-101.3" font-family="Helvetica,sans-Serif" font-weight="bold" font-size="11.00" fill="#000000">status_history</text>
<text text-anchor="start" x="440.5219" y="-100.8" font-family="Helvetica,sans-Serif" font-size="11.00" fill="#000000">[table]</text>
<polygon fill="none" stroke="#000000" points="341,-73.7 341,-92.7 475,-92.7 475,-73.7 341,-73.7"/>
<text text-anchor="start" x="344" y="-79.8" font-family="Helvetica,sans-Serif" font-size="11.00" fill="#000000">...</text>
<polygon fill="#ffffff" stroke="transparent" points="341,-54.7 341,-73.7 406,-73.7 406,-54.7 341,-54.7"/>
<polygon fill="none" stroke="#000000" points="341,-54.7 341,-73.7 406,-73.7 406,-54.7 341,-54.7"/>
<text text-anchor="start" x="344" y="-60.8" font-family="Helvetica,sans-Serif" font-size="11.00" fill="#000000">&lt; 1</text>
<polygon fill="#ffffff" stroke="transparent" points="406,-54.7 406,-73.7 440,-73.7 440,-54.7 406,-54.7"/>
<polygon fill="none" stroke="#000000" points="406,-54.7 406,-73.7 440,-73.7 440,-54.7 406,-54.7"/>
<text text-anchor="start" x="430.8862" y="-60.8" font-family="Helvetica,sans-Serif" font-size="11.00" fill="#000000"> &#160;</text>
<polygon fill="#ffffff" stroke="transparent" points="440,-54.7 440,-73.7 475,-73.7 475,-54.7 440,-54.7"/>
<polygon fill="none" stroke="#000000" points="440,-54.7 440,-73.7 475,-73.7 475,-54.7 440,-54.7"/>
<text text-anchor="start" x="465.8862" y="-60.8" font-family="Helvetica,sans-Serif" font-size="11.00" fill="#000000"> &#160;</text>
</a>
</g>
</g>
<!-- status_history&#45;&gt;report -->
<g id="edge7" class="edge">
<title>status_history:w&#45;&gt;report:e</title>
<path fill="none" stroke="#000000" d="M326.4771,-83.1569C293.7912,-85.4305 277.8089,-96.6383 255,-126.7 199.6277,-199.6795 305.6084,-328.7 214,-328.7"/>
<polygon fill="#000000" stroke="#000000" points="333.004,-82.9516 341.1132,-86.2982 337.002,-82.8258 341,-82.7 341,-82.7 341,-82.7 337.002,-82.8258 340.8868,-79.1018 333.004,-82.9516 333.004,-82.9516"/>
<ellipse fill="none" stroke="#000000" cx="329.8055" cy="-83.0523" rx="3.2" ry="3.2"/>
</g>
</g>
</svg>
