<?xml version="1.0" encoding="UTF-8" standalone="no"?>
<!DOCTYPE svg PUBLIC "-//W3C//DTD SVG 1.1//EN"
 "http://www.w3.org/Graphics/SVG/1.1/DTD/svg11.dtd">
<!-- Generated by graphviz version 2.40.1 (20161225.0304)
 -->
<!-- Title: oneDegreeRelationshipsDiagram Pages: 1 -->
<svg width="665pt" height="271pt"
 viewBox="0.00 0.00 665.00 270.70" xmlns="http://www.w3.org/2000/svg" xmlns:xlink="http://www.w3.org/1999/xlink">
<g id="graph0" class="graph" transform="scale(1 1) rotate(0) translate(4 266.7)">
<title>oneDegreeRelationshipsDiagram</title>
<polygon fill="#ffffff" stroke="transparent" points="-4,4 -4,-266.7 661,-266.7 661,4 -4,4"/>
<text text-anchor="middle" x="72.4936" y="-7.3" font-family="Helvetica,sans-Serif" font-size="11.00" fill="#000000">Generated by SchemaSpy</text>
<!-- historical_question -->
<g id="node1" class="node">
<title>historical_question</title>
<g id="a_node1"><a xlink:href="../../tables/historical_question.html" xlink:title="historical_question" target="_top">
<polygon fill="#ffffff" stroke="transparent" points="158,-38.2 158,-238.2 426,-238.2 426,-38.2 158,-38.2"/>
<polygon fill="#f5f5f5" stroke="transparent" points="160,-213.2 160,-236.2 424,-236.2 424,-213.2 160,-213.2"/>
<polygon fill="none" stroke="#000000" points="160,-213.2 160,-236.2 424,-236.2 424,-213.2 160,-213.2"/>
<text text-anchor="start" x="165" y="-221.8" font-family="Helvetica,sans-Serif" font-weight="bold" font-size="11.00" fill="#000000">historical_question</text>
<text text-anchor="start" x="389.0437" y="-221.3" font-family="Helvetica,sans-Serif" font-size="11.00" fill="#000000">[table]</text>
<polygon fill="none" stroke="#000000" points="160,-191.2 160,-213.2 334,-213.2 334,-191.2 160,-191.2"/>
<image xlink:href="../../images/primaryKeys.png" width="11px" height="12px" preserveAspectRatio="xMinYMin meet" x="165" y="-208.2"/>
<text text-anchor="start" x="180" y="-198.3" font-family="Helvetica,sans-Serif" font-size="11.00" fill="#000000">id</text>
<polygon fill="none" stroke="#000000" points="334,-191.2 334,-213.2 424,-213.2 424,-191.2 334,-191.2"/>
<text text-anchor="start" x="337" y="-198.9" font-family="Helvetica,sans-Serif" font-size="11.00" fill="#000000">serial[10]</text>
<polygon fill="#ffffff" stroke="transparent" points="160,-169.2 160,-191.2 334,-191.2 334,-169.2 160,-169.2"/>
<polygon fill="none" stroke="#000000" points="160,-169.2 160,-191.2 334,-191.2 334,-169.2 160,-169.2"/>
<image xlink:href="../../images/foreignKeys.png" width="11px" height="12px" preserveAspectRatio="xMinYMin meet" x="165" y="-186.2"/>
<text text-anchor="start" x="180" y="-176.3" font-family="Helvetica,sans-Serif" font-size="11.00" fill="#000000">history_id</text>
<polygon fill="none" stroke="#000000" points="334,-169.2 334,-191.2 424,-191.2 424,-169.2 334,-169.2"/>
<text text-anchor="start" x="337" y="-176.9" font-family="Helvetica,sans-Serif" font-size="11.00" fill="#000000">int4[10]</text>
<polygon fill="#ffffff" stroke="transparent" points="160,-147.2 160,-169.2 334,-169.2 334,-147.2 160,-147.2"/>
<polygon fill="none" stroke="#000000" points="160,-147.2 160,-169.2 334,-169.2 334,-147.2 160,-147.2"/>
<text text-anchor="start" x="180" y="-154.3" font-family="Helvetica,sans-Serif" font-size="11.00" fill="#000000">sequence</text>
<polygon fill="none" stroke="#000000" points="334,-147.2 334,-169.2 424,-169.2 424,-147.2 334,-147.2"/>
<text text-anchor="start" x="337" y="-154.9" font-family="Helvetica,sans-Serif" font-size="11.00" fill="#000000">int4[10]</text>
<polygon fill="#ffffff" stroke="transparent" points="160,-125.2 160,-147.2 334,-147.2 334,-125.2 160,-125.2"/>
<polygon fill="none" stroke="#000000" points="160,-125.2 160,-147.2 334,-147.2 334,-125.2 160,-125.2"/>
<text text-anchor="start" x="180" y="-132.3" font-family="Helvetica,sans-Serif" font-size="11.00" fill="#000000">code</text>
<polygon fill="none" stroke="#000000" points="334,-125.2 334,-147.2 424,-147.2 424,-125.2 334,-125.2"/>
<text text-anchor="start" x="337" y="-132.9" font-family="Helvetica,sans-Serif" font-size="11.00" fill="#000000">varchar[60]</text>
<polygon fill="none" stroke="#000000" points="160,-103.2 160,-125.2 334,-125.2 334,-103.2 160,-103.2"/>
<text text-anchor="start" x="180" y="-110.3" font-family="Helvetica,sans-Serif" font-size="11.00" fill="#000000">question</text>
<polygon fill="none" stroke="#000000" points="334,-103.2 334,-125.2 424,-125.2 424,-103.2 334,-103.2"/>
<text text-anchor="start" x="336.5043" y="-110.9" font-family="Helvetica,sans-Serif" font-size="11.00" fill="#000000">text[2147483647]</text>
<polygon fill="none" stroke="#000000" points="160,-81.2 160,-103.2 334,-103.2 334,-81.2 160,-81.2"/>
<text text-anchor="start" x="180" y="-88.3" font-family="Helvetica,sans-Serif" font-size="11.00" fill="#000000">additional_information</text>
<polygon fill="none" stroke="#000000" points="334,-81.2 334,-103.2 424,-103.2 424,-81.2 334,-81.2"/>
<text text-anchor="start" x="336.5043" y="-88.9" font-family="Helvetica,sans-Serif" font-size="11.00" fill="#000000">text[2147483647]</text>
<polygon fill="none" stroke="#000000" points="160,-59.2 160,-81.2 334,-81.2 334,-59.2 160,-59.2"/>
<text text-anchor="start" x="180" y="-66.3" font-family="Helvetica,sans-Serif" font-size="11.00" fill="#000000">label</text>
<polygon fill="none" stroke="#000000" points="334,-59.2 334,-81.2 424,-81.2 424,-59.2 334,-59.2"/>
<text text-anchor="start" x="336.5043" y="-66.9" font-family="Helvetica,sans-Serif" font-size="11.00" fill="#000000">text[2147483647]</text>
<polygon fill="#ffffff" stroke="transparent" points="160,-40.2 160,-59.2 251,-59.2 251,-40.2 160,-40.2"/>
<polygon fill="none" stroke="#000000" points="160,-40.2 160,-59.2 251,-59.2 251,-40.2 160,-40.2"/>
<text text-anchor="start" x="163" y="-46.3" font-family="Helvetica,sans-Serif" font-size="11.00" fill="#000000">&lt; 1</text>
<polygon fill="#ffffff" stroke="transparent" points="251,-40.2 251,-59.2 334,-59.2 334,-40.2 251,-40.2"/>
<polygon fill="none" stroke="#000000" points="251,-40.2 251,-59.2 334,-59.2 334,-40.2 251,-40.2"/>
<text text-anchor="start" x="324.8862" y="-46.3" font-family="Helvetica,sans-Serif" font-size="11.00" fill="#000000"> &#160;</text>
<polygon fill="#ffffff" stroke="transparent" points="334,-40.2 334,-59.2 424,-59.2 424,-40.2 334,-40.2"/>
<polygon fill="none" stroke="#000000" points="334,-40.2 334,-59.2 424,-59.2 424,-40.2 334,-40.2"/>
<text text-anchor="start" x="405.4053" y="-46.3" font-family="Helvetica,sans-Serif" font-size="11.00" fill="#000000">1 &gt;</text>
<polygon fill="none" stroke="#000000" stroke-width="2" points="159,-39.2 159,-237.2 425,-237.2 425,-39.2 159,-39.2"/>
</a>
</g>
</g>
<!-- history -->
<g id="node2" class="node">
<title>history</title>
<g id="a_node2"><a xlink:href="../../tables/history.html" xlink:title="history" target="_top">
<polygon fill="#ffffff" stroke="transparent" points="8,-87.7 8,-214.7 109,-214.7 109,-87.7 8,-87.7"/>
<polygon fill="#f5f5f5" stroke="transparent" points="8.5,-191.2 8.5,-214.2 109.5,-214.2 109.5,-191.2 8.5,-191.2"/>
<polygon fill="none" stroke="#000000" points="8.5,-191.2 8.5,-214.2 109.5,-214.2 109.5,-191.2 8.5,-191.2"/>
<text text-anchor="start" x="13.5" y="-199.8" font-family="Helvetica,sans-Serif" font-weight="bold" font-size="11.00" fill="#000000">history</text>
<text text-anchor="start" x="74.5437" y="-199.3" font-family="Helvetica,sans-Serif" font-size="11.00" fill="#000000">[table]</text>
<polygon fill="none" stroke="#000000" points="8.5,-169.2 8.5,-191.2 109.5,-191.2 109.5,-169.2 8.5,-169.2"/>
<image xlink:href="../../images/primaryKeys.png" width="11px" height="12px" preserveAspectRatio="xMinYMin meet" x="13.5" y="-186.2"/>
<text text-anchor="start" x="28.5" y="-176.3" font-family="Helvetica,sans-Serif" font-size="11.00" fill="#000000">id</text>
<polygon fill="#ffffff" stroke="transparent" points="8.5,-147.2 8.5,-169.2 109.5,-169.2 109.5,-147.2 8.5,-147.2"/>
<polygon fill="none" stroke="#000000" points="8.5,-147.2 8.5,-169.2 109.5,-169.2 109.5,-147.2 8.5,-147.2"/>
<image xlink:href="../../images/foreignKeys.png" width="11px" height="12px" preserveAspectRatio="xMinYMin meet" x="13.5" y="-164.2"/>
<text text-anchor="start" x="28.5" y="-154.3" font-family="Helvetica,sans-Serif" font-size="11.00" fill="#000000">report_id</text>
<polygon fill="#ffffff" stroke="transparent" points="8.5,-125.2 8.5,-147.2 109.5,-147.2 109.5,-125.2 8.5,-125.2"/>
<polygon fill="none" stroke="#000000" points="8.5,-125.2 8.5,-147.2 109.5,-147.2 109.5,-125.2 8.5,-125.2"/>
<text text-anchor="start" x="28.5" y="-132.3" font-family="Helvetica,sans-Serif" font-size="11.00" fill="#000000">changed_at</text>
<polygon fill="none" stroke="#000000" points="8.5,-106.2 8.5,-125.2 109.5,-125.2 109.5,-106.2 8.5,-106.2"/>
<text text-anchor="start" x="11.5" y="-112.3" font-family="Helvetica,sans-Serif" font-size="11.00" fill="#000000">...</text>
<polygon fill="#ffffff" stroke="transparent" points="8.5,-87.2 8.5,-106.2 52.5,-106.2 52.5,-87.2 8.5,-87.2"/>
<polygon fill="none" stroke="#000000" points="8.5,-87.2 8.5,-106.2 52.5,-106.2 52.5,-87.2 8.5,-87.2"/>
<text text-anchor="start" x="11.5" y="-93.3" font-family="Helvetica,sans-Serif" font-size="11.00" fill="#000000">&lt; 1</text>
<polygon fill="#ffffff" stroke="transparent" points="52.5,-87.2 52.5,-106.2 76.5,-106.2 76.5,-87.2 52.5,-87.2"/>
<polygon fill="none" stroke="#000000" points="52.5,-87.2 52.5,-106.2 76.5,-106.2 76.5,-87.2 52.5,-87.2"/>
<text text-anchor="start" x="67.3862" y="-93.3" font-family="Helvetica,sans-Serif" font-size="11.00" fill="#000000"> &#160;</text>
<polygon fill="#ffffff" stroke="transparent" points="76.5,-87.2 76.5,-106.2 109.5,-106.2 109.5,-87.2 76.5,-87.2"/>
<polygon fill="none" stroke="#000000" points="76.5,-87.2 76.5,-106.2 109.5,-106.2 109.5,-87.2 76.5,-87.2"/>
<text text-anchor="start" x="90.9053" y="-93.3" font-family="Helvetica,sans-Serif" font-size="11.00" fill="#000000">1 &gt;</text>
</a>
</g>
</g>
<!-- historical_question&#45;&gt;history -->
<g id="edge1" class="edge">
<title>historical_question:w&#45;&gt;history:e</title>
<path fill="none" stroke="#000000" d="M145.4203,-180.2C133.5435,-180.2 126.158,-180.2 109.5,-180.2"/>
<polygon fill="#000000" stroke="#000000" points="152,-180.2001 160,-183.8 156,-180.2 160,-180.2 160,-180.2 160,-180.2 156,-180.2 160,-176.6 152,-180.2001 152,-180.2001"/>
<ellipse fill="none" stroke="#000000" cx="148.8" cy="-180.2001" rx="3.2" ry="3.2"/>
</g>
<!-- historical_response -->
<g id="node3" class="node">
<title>historical_response</title>
<g id="a_node3"><a xlink:href="../../tables/historical_response.html" xlink:title="historical_response" target="_top">
<polygon fill="#ffffff" stroke="transparent" points="475,-131.7 475,-258.7 649,-258.7 649,-131.7 475,-131.7"/>
<polygon fill="#f5f5f5" stroke="transparent" points="475,-235.2 475,-258.2 649,-258.2 649,-235.2 475,-235.2"/>
<polygon fill="none" stroke="#000000" points="475,-235.2 475,-258.2 649,-258.2 649,-235.2 475,-235.2"/>
<text text-anchor="start" x="480" y="-243.8" font-family="Helvetica,sans-Serif" font-weight="bold" font-size="11.00" fill="#000000">historical_response</text>
<text text-anchor="start" x="614.0437" y="-243.3" font-family="Helvetica,sans-Serif" font-size="11.00" fill="#000000">[table]</text>
<polygon fill="none" stroke="#000000" points="475,-213.2 475,-235.2 649,-235.2 649,-213.2 475,-213.2"/>
<image xlink:href="../../images/primaryKeys.png" width="11px" height="12px" preserveAspectRatio="xMinYMin meet" x="480" y="-230.2"/>
<text text-anchor="start" x="495" y="-220.3" font-family="Helvetica,sans-Serif" font-size="11.00" fill="#000000">id</text>
<polygon fill="#ffffff" stroke="transparent" points="475,-191.2 475,-213.2 649,-213.2 649,-191.2 475,-191.2"/>
<polygon fill="none" stroke="#000000" points="475,-191.2 475,-213.2 649,-213.2 649,-191.2 475,-191.2"/>
<image xlink:href="../../images/foreignKeys.png" width="11px" height="12px" preserveAspectRatio="xMinYMin meet" x="480" y="-208.2"/>
<text text-anchor="start" x="495" y="-198.3" font-family="Helvetica,sans-Serif" font-size="11.00" fill="#000000">historical_question_id</text>
<polygon fill="#ffffff" stroke="transparent" points="475,-169.2 475,-191.2 649,-191.2 649,-169.2 475,-169.2"/>
<polygon fill="none" stroke="#000000" points="475,-169.2 475,-191.2 649,-191.2 649,-169.2 475,-169.2"/>
<text text-anchor="start" x="495" y="-176.3" font-family="Helvetica,sans-Serif" font-size="11.00" fill="#000000">sequence</text>
<polygon fill="none" stroke="#000000" points="475,-150.2 475,-169.2 649,-169.2 649,-150.2 475,-150.2"/>
<text text-anchor="start" x="478" y="-156.3" font-family="Helvetica,sans-Serif" font-size="11.00" fill="#000000">...</text>
<polygon fill="#ffffff" stroke="transparent" points="475,-131.2 475,-150.2 560,-150.2 560,-131.2 475,-131.2"/>
<polygon fill="none" stroke="#000000" points="475,-131.2 475,-150.2 560,-150.2 560,-131.2 475,-131.2"/>
<text text-anchor="start" x="478" y="-137.3" font-family="Helvetica,sans-Serif" font-size="11.00" fill="#000000">&lt; 1</text>
<polygon fill="#ffffff" stroke="transparent" points="560,-131.2 560,-150.2 604,-150.2 604,-131.2 560,-131.2"/>
<polygon fill="none" stroke="#000000" points="560,-131.2 560,-150.2 604,-150.2 604,-131.2 560,-131.2"/>
<text text-anchor="start" x="594.8862" y="-137.3" font-family="Helvetica,sans-Serif" font-size="11.00" fill="#000000"> &#160;</text>
<polygon fill="#ffffff" stroke="transparent" points="604,-131.2 604,-150.2 649,-150.2 649,-131.2 604,-131.2"/>
<polygon fill="none" stroke="#000000" points="604,-131.2 604,-150.2 649,-150.2 649,-131.2 604,-131.2"/>
<text text-anchor="start" x="639.8862" y="-137.3" font-family="Helvetica,sans-Serif" font-size="11.00" fill="#000000"> &#160;</text>
</a>
</g>
</g>
<!-- historical_response&#45;&gt;historical_question -->
<g id="edge2" class="edge">
<title>historical_response:w&#45;&gt;historical_question:e</title>
<path fill="none" stroke="#000000" d="M460.276,-202.2C448.2815,-202.2 440.8229,-202.2 424,-202.2"/>
<polygon fill="#000000" stroke="#000000" points="467,-202.2001 475,-205.8 471,-202.2 475,-202.2 475,-202.2 475,-202.2 471,-202.2 475,-198.6 467,-202.2001 467,-202.2001"/>
<ellipse fill="none" stroke="#000000" cx="463.8" cy="-202.2001" rx="3.2" ry="3.2"/>
</g>
</g>
</svg>
