<?xml version="1.0" encoding="UTF-8" standalone="no"?>
<!DOCTYPE svg PUBLIC "-//W3C//DTD SVG 1.1//EN"
 "http://www.w3.org/Graphics/SVG/1.1/DTD/svg11.dtd">
<!-- Generated by graphviz version 2.40.1 (20161225.0304)
 -->
<!-- Title: twoDegreesRelationshipsDiagram Pages: 1 -->
<svg width="795pt" height="271pt"
 viewBox="0.00 0.00 795.00 270.70" xmlns="http://www.w3.org/2000/svg" xmlns:xlink="http://www.w3.org/1999/xlink">
<g id="graph0" class="graph" transform="scale(1 1) rotate(0) translate(4 266.7)">
<title>twoDegreesRelationshipsDiagram</title>
<polygon fill="#ffffff" stroke="transparent" points="-4,4 -4,-266.7 791,-266.7 791,4 -4,4"/>
<text text-anchor="middle" x="72.4936" y="-7.3" font-family="Helvetica,sans-Serif" font-size="11.00" fill="#000000">Generated by SchemaSpy</text>
<!-- historical_question -->
<g id="node1" class="node">
<title>historical_question</title>
<g id="a_node1"><a xlink:href="../../tables/historical_question.html" xlink:title="historical_question" target="_top">
<polygon fill="#ffffff" stroke="transparent" points="288,-38.2 288,-238.2 556,-238.2 556,-38.2 288,-38.2"/>
<polygon fill="#f5f5f5" stroke="transparent" points="290,-213.2 290,-236.2 554,-236.2 554,-213.2 290,-213.2"/>
<polygon fill="none" stroke="#000000" points="290,-213.2 290,-236.2 554,-236.2 554,-213.2 290,-213.2"/>
<text text-anchor="start" x="295" y="-221.8" font-family="Helvetica,sans-Serif" font-weight="bold" font-size="11.00" fill="#000000">historical_question</text>
<text text-anchor="start" x="519.0437" y="-221.3" font-family="Helvetica,sans-Serif" font-size="11.00" fill="#000000">[table]</text>
<polygon fill="none" stroke="#000000" points="290,-191.2 290,-213.2 464,-213.2 464,-191.2 290,-191.2"/>
<image xlink:href="../../images/primaryKeys.png" width="11px" height="12px" preserveAspectRatio="xMinYMin meet" x="295" y="-208.2"/>
<text text-anchor="start" x="310" y="-198.3" font-family="Helvetica,sans-Serif" font-size="11.00" fill="#000000">id</text>
<polygon fill="none" stroke="#000000" points="464,-191.2 464,-213.2 554,-213.2 554,-191.2 464,-191.2"/>
<text text-anchor="start" x="467" y="-198.9" font-family="Helvetica,sans-Serif" font-size="11.00" fill="#000000">serial[10]</text>
<polygon fill="#ffffff" stroke="transparent" points="290,-169.2 290,-191.2 464,-191.2 464,-169.2 290,-169.2"/>
<polygon fill="none" stroke="#000000" points="290,-169.2 290,-191.2 464,-191.2 464,-169.2 290,-169.2"/>
<image xlink:href="../../images/foreignKeys.png" width="11px" height="12px" preserveAspectRatio="xMinYMin meet" x="295" y="-186.2"/>
<text text-anchor="start" x="310" y="-176.3" font-family="Helvetica,sans-Serif" font-size="11.00" fill="#000000">history_id</text>
<polygon fill="none" stroke="#000000" points="464,-169.2 464,-191.2 554,-191.2 554,-169.2 464,-169.2"/>
<text text-anchor="start" x="467" y="-176.9" font-family="Helvetica,sans-Serif" font-size="11.00" fill="#000000">int4[10]</text>
<polygon fill="#ffffff" stroke="transparent" points="290,-147.2 290,-169.2 464,-169.2 464,-147.2 290,-147.2"/>
<polygon fill="none" stroke="#000000" points="290,-147.2 290,-169.2 464,-169.2 464,-147.2 290,-147.2"/>
<text text-anchor="start" x="310" y="-154.3" font-family="Helvetica,sans-Serif" font-size="11.00" fill="#000000">sequence</text>
<polygon fill="none" stroke="#000000" points="464,-147.2 464,-169.2 554,-169.2 554,-147.2 464,-147.2"/>
<text text-anchor="start" x="467" y="-154.9" font-family="Helvetica,sans-Serif" font-size="11.00" fill="#000000">int4[10]</text>
<polygon fill="#ffffff" stroke="transparent" points="290,-125.2 290,-147.2 464,-147.2 464,-125.2 290,-125.2"/>
<polygon fill="none" stroke="#000000" points="290,-125.2 290,-147.2 464,-147.2 464,-125.2 290,-125.2"/>
<text text-anchor="start" x="310" y="-132.3" font-family="Helvetica,sans-Serif" font-size="11.00" fill="#000000">code</text>
<polygon fill="none" stroke="#000000" points="464,-125.2 464,-147.2 554,-147.2 554,-125.2 464,-125.2"/>
<text text-anchor="start" x="467" y="-132.9" font-family="Helvetica,sans-Serif" font-size="11.00" fill="#000000">varchar[60]</text>
<polygon fill="none" stroke="#000000" points="290,-103.2 290,-125.2 464,-125.2 464,-103.2 290,-103.2"/>
<text text-anchor="start" x="310" y="-110.3" font-family="Helvetica,sans-Serif" font-size="11.00" fill="#000000">question</text>
<polygon fill="none" stroke="#000000" points="464,-103.2 464,-125.2 554,-125.2 554,-103.2 464,-103.2"/>
<text text-anchor="start" x="466.5043" y="-110.9" font-family="Helvetica,sans-Serif" font-size="11.00" fill="#000000">text[2147483647]</text>
<polygon fill="none" stroke="#000000" points="290,-81.2 290,-103.2 464,-103.2 464,-81.2 290,-81.2"/>
<text text-anchor="start" x="310" y="-88.3" font-family="Helvetica,sans-Serif" font-size="11.00" fill="#000000">additional_information</text>
<polygon fill="none" stroke="#000000" points="464,-81.2 464,-103.2 554,-103.2 554,-81.2 464,-81.2"/>
<text text-anchor="start" x="466.5043" y="-88.9" font-family="Helvetica,sans-Serif" font-size="11.00" fill="#000000">text[2147483647]</text>
<polygon fill="none" stroke="#000000" points="290,-59.2 290,-81.2 464,-81.2 464,-59.2 290,-59.2"/>
<text text-anchor="start" x="310" y="-66.3" font-family="Helvetica,sans-Serif" font-size="11.00" fill="#000000">label</text>
<polygon fill="none" stroke="#000000" points="464,-59.2 464,-81.2 554,-81.2 554,-59.2 464,-59.2"/>
<text text-anchor="start" x="466.5043" y="-66.9" font-family="Helvetica,sans-Serif" font-size="11.00" fill="#000000">text[2147483647]</text>
<polygon fill="#ffffff" stroke="transparent" points="290,-40.2 290,-59.2 381,-59.2 381,-40.2 290,-40.2"/>
<polygon fill="none" stroke="#000000" points="290,-40.2 290,-59.2 381,-59.2 381,-40.2 290,-40.2"/>
<text text-anchor="start" x="293" y="-46.3" font-family="Helvetica,sans-Serif" font-size="11.00" fill="#000000">&lt; 1</text>
<polygon fill="#ffffff" stroke="transparent" points="381,-40.2 381,-59.2 464,-59.2 464,-40.2 381,-40.2"/>
<polygon fill="none" stroke="#000000" points="381,-40.2 381,-59.2 464,-59.2 464,-40.2 381,-40.2"/>
<text text-anchor="start" x="454.8862" y="-46.3" font-family="Helvetica,sans-Serif" font-size="11.00" fill="#000000"> &#160;</text>
<polygon fill="#ffffff" stroke="transparent" points="464,-40.2 464,-59.2 554,-59.2 554,-40.2 464,-40.2"/>
<polygon fill="none" stroke="#000000" points="464,-40.2 464,-59.2 554,-59.2 554,-40.2 464,-40.2"/>
<text text-anchor="start" x="535.4053" y="-46.3" font-family="Helvetica,sans-Serif" font-size="11.00" fill="#000000">1 &gt;</text>
<polygon fill="none" stroke="#000000" stroke-width="2" points="289,-39.2 289,-237.2 555,-237.2 555,-39.2 289,-39.2"/>
</a>
</g>
</g>
<!-- history -->
<g id="node2" class="node">
<title>history</title>
<g id="a_node2"><a xlink:href="../../tables/history.html" xlink:title="history" target="_top">
<polygon fill="#ffffff" stroke="transparent" points="138,-87.7 138,-214.7 239,-214.7 239,-87.7 138,-87.7"/>
<polygon fill="#f5f5f5" stroke="transparent" points="138.5,-191.2 138.5,-214.2 239.5,-214.2 239.5,-191.2 138.5,-191.2"/>
<polygon fill="none" stroke="#000000" points="138.5,-191.2 138.5,-214.2 239.5,-214.2 239.5,-191.2 138.5,-191.2"/>
<text text-anchor="start" x="143.5" y="-199.8" font-family="Helvetica,sans-Serif" font-weight="bold" font-size="11.00" fill="#000000">history</text>
<text text-anchor="start" x="204.5437" y="-199.3" font-family="Helvetica,sans-Serif" font-size="11.00" fill="#000000">[table]</text>
<polygon fill="none" stroke="#000000" points="138.5,-169.2 138.5,-191.2 239.5,-191.2 239.5,-169.2 138.5,-169.2"/>
<image xlink:href="../../images/primaryKeys.png" width="11px" height="12px" preserveAspectRatio="xMinYMin meet" x="143.5" y="-186.2"/>
<text text-anchor="start" x="158.5" y="-176.3" font-family="Helvetica,sans-Serif" font-size="11.00" fill="#000000">id</text>
<polygon fill="#ffffff" stroke="transparent" points="138.5,-147.2 138.5,-169.2 239.5,-169.2 239.5,-147.2 138.5,-147.2"/>
<polygon fill="none" stroke="#000000" points="138.5,-147.2 138.5,-169.2 239.5,-169.2 239.5,-147.2 138.5,-147.2"/>
<image xlink:href="../../images/foreignKeys.png" width="11px" height="12px" preserveAspectRatio="xMinYMin meet" x="143.5" y="-164.2"/>
<text text-anchor="start" x="158.5" y="-154.3" font-family="Helvetica,sans-Serif" font-size="11.00" fill="#000000">report_id</text>
<polygon fill="#ffffff" stroke="transparent" points="138.5,-125.2 138.5,-147.2 239.5,-147.2 239.5,-125.2 138.5,-125.2"/>
<polygon fill="none" stroke="#000000" points="138.5,-125.2 138.5,-147.2 239.5,-147.2 239.5,-125.2 138.5,-125.2"/>
<text text-anchor="start" x="158.5" y="-132.3" font-family="Helvetica,sans-Serif" font-size="11.00" fill="#000000">changed_at</text>
<polygon fill="none" stroke="#000000" points="138.5,-106.2 138.5,-125.2 239.5,-125.2 239.5,-106.2 138.5,-106.2"/>
<text text-anchor="start" x="141.5" y="-112.3" font-family="Helvetica,sans-Serif" font-size="11.00" fill="#000000">...</text>
<polygon fill="#ffffff" stroke="transparent" points="138.5,-87.2 138.5,-106.2 182.5,-106.2 182.5,-87.2 138.5,-87.2"/>
<polygon fill="none" stroke="#000000" points="138.5,-87.2 138.5,-106.2 182.5,-106.2 182.5,-87.2 138.5,-87.2"/>
<text text-anchor="start" x="141.5" y="-93.3" font-family="Helvetica,sans-Serif" font-size="11.00" fill="#000000">&lt; 1</text>
<polygon fill="#ffffff" stroke="transparent" points="182.5,-87.2 182.5,-106.2 206.5,-106.2 206.5,-87.2 182.5,-87.2"/>
<polygon fill="none" stroke="#000000" points="182.5,-87.2 182.5,-106.2 206.5,-106.2 206.5,-87.2 182.5,-87.2"/>
<text text-anchor="start" x="197.3862" y="-93.3" font-family="Helvetica,sans-Serif" font-size="11.00" fill="#000000"> &#160;</text>
<polygon fill="#ffffff" stroke="transparent" points="206.5,-87.2 206.5,-106.2 239.5,-106.2 239.5,-87.2 206.5,-87.2"/>
<polygon fill="none" stroke="#000000" points="206.5,-87.2 206.5,-106.2 239.5,-106.2 239.5,-87.2 206.5,-87.2"/>
<text text-anchor="start" x="220.9053" y="-93.3" font-family="Helvetica,sans-Serif" font-size="11.00" fill="#000000">1 &gt;</text>
</a>
</g>
</g>
<!-- historical_question&#45;&gt;history -->
<g id="edge1" class="edge">
<title>historical_question:w&#45;&gt;history:e</title>
<path fill="none" stroke="#000000" d="M275.4203,-180.2C263.5435,-180.2 256.158,-180.2 239.5,-180.2"/>
<polygon fill="#000000" stroke="#000000" points="282,-180.2001 290,-183.8 286,-180.2 290,-180.2 290,-180.2 290,-180.2 286,-180.2 290,-176.6 282,-180.2001 282,-180.2001"/>
<ellipse fill="none" stroke="#000000" cx="278.8" cy="-180.2001" rx="3.2" ry="3.2"/>
</g>
<!-- report -->
<g id="node4" class="node">
<title>report</title>
<g id="a_node4"><a xlink:href="../../tables/report.html" xlink:title="report" target="_top">
<polygon fill="#ffffff" stroke="transparent" points="8,-130.7 8,-191.7 89,-191.7 89,-130.7 8,-130.7"/>
<polygon fill="#f5f5f5" stroke="transparent" points="8.5,-168.2 8.5,-191.2 89.5,-191.2 89.5,-168.2 8.5,-168.2"/>
<polygon fill="none" stroke="#000000" points="8.5,-168.2 8.5,-191.2 89.5,-191.2 89.5,-168.2 8.5,-168.2"/>
<text text-anchor="start" x="13.5" y="-176.8" font-family="Helvetica,sans-Serif" font-weight="bold" font-size="11.00" fill="#000000">report</text>
<text text-anchor="start" x="55.0219" y="-176.3" font-family="Helvetica,sans-Serif" font-size="11.00" fill="#000000">[table]</text>
<polygon fill="none" stroke="#000000" points="8.5,-149.2 8.5,-168.2 89.5,-168.2 89.5,-149.2 8.5,-149.2"/>
<text text-anchor="start" x="11.5" y="-155.3" font-family="Helvetica,sans-Serif" font-size="11.00" fill="#000000">...</text>
<polygon fill="#ffffff" stroke="transparent" points="8.5,-130.2 8.5,-149.2 42.5,-149.2 42.5,-130.2 8.5,-130.2"/>
<polygon fill="none" stroke="#000000" points="8.5,-130.2 8.5,-149.2 42.5,-149.2 42.5,-130.2 8.5,-130.2"/>
<text text-anchor="start" x="11.5" y="-136.3" font-family="Helvetica,sans-Serif" font-size="11.00" fill="#000000">&lt; 1</text>
<polygon fill="#ffffff" stroke="transparent" points="42.5,-130.2 42.5,-149.2 61.5,-149.2 61.5,-130.2 42.5,-130.2"/>
<polygon fill="none" stroke="#000000" points="42.5,-130.2 42.5,-149.2 61.5,-149.2 61.5,-130.2 42.5,-130.2"/>
<text text-anchor="start" x="52.3862" y="-136.3" font-family="Helvetica,sans-Serif" font-size="11.00" fill="#000000"> &#160;</text>
<polygon fill="#ffffff" stroke="transparent" points="61.5,-130.2 61.5,-149.2 89.5,-149.2 89.5,-130.2 61.5,-130.2"/>
<polygon fill="none" stroke="#000000" points="61.5,-130.2 61.5,-149.2 89.5,-149.2 89.5,-130.2 61.5,-130.2"/>
<text text-anchor="start" x="70.9053" y="-136.3" font-family="Helvetica,sans-Serif" font-size="11.00" fill="#000000">8 &gt;</text>
</a>
</g>
</g>
<!-- history&#45;&gt;report -->
<g id="edge3" class="edge">
<title>history:w&#45;&gt;report:e</title>
<path fill="none" stroke="#000000" d="M123.9909,-158.2C112.6774,-158.2 105.4931,-158.2 89.5,-158.2"/>
<polygon fill="#000000" stroke="#000000" points="130.5,-158.2001 138.5,-161.8 134.5,-158.2 138.5,-158.2 138.5,-158.2 138.5,-158.2 134.5,-158.2 138.5,-154.6 130.5,-158.2001 130.5,-158.2001"/>
<ellipse fill="none" stroke="#000000" cx="127.3" cy="-158.2001" rx="3.2" ry="3.2"/>
</g>
<!-- historical_response -->
<g id="node3" class="node">
<title>historical_response</title>
<g id="a_node3"><a xlink:href="../../tables/historical_response.html" xlink:title="historical_response" target="_top">
<polygon fill="#ffffff" stroke="transparent" points="605,-131.7 605,-258.7 779,-258.7 779,-131.7 605,-131.7"/>
<polygon fill="#f5f5f5" stroke="transparent" points="605,-235.2 605,-258.2 779,-258.2 779,-235.2 605,-235.2"/>
<polygon fill="none" stroke="#000000" points="605,-235.2 605,-258.2 779,-258.2 779,-235.2 605,-235.2"/>
<text text-anchor="start" x="610" y="-243.8" font-family="Helvetica,sans-Serif" font-weight="bold" font-size="11.00" fill="#000000">historical_response</text>
<text text-anchor="start" x="744.0437" y="-243.3" font-family="Helvetica,sans-Serif" font-size="11.00" fill="#000000">[table]</text>
<polygon fill="none" stroke="#000000" points="605,-213.2 605,-235.2 779,-235.2 779,-213.2 605,-213.2"/>
<image xlink:href="../../images/primaryKeys.png" width="11px" height="12px" preserveAspectRatio="xMinYMin meet" x="610" y="-230.2"/>
<text text-anchor="start" x="625" y="-220.3" font-family="Helvetica,sans-Serif" font-size="11.00" fill="#000000">id</text>
<polygon fill="#ffffff" stroke="transparent" points="605,-191.2 605,-213.2 779,-213.2 779,-191.2 605,-191.2"/>
<polygon fill="none" stroke="#000000" points="605,-191.2 605,-213.2 779,-213.2 779,-191.2 605,-191.2"/>
<image xlink:href="../../images/foreignKeys.png" width="11px" height="12px" preserveAspectRatio="xMinYMin meet" x="610" y="-208.2"/>
<text text-anchor="start" x="625" y="-198.3" font-family="Helvetica,sans-Serif" font-size="11.00" fill="#000000">historical_question_id</text>
<polygon fill="#ffffff" stroke="transparent" points="605,-169.2 605,-191.2 779,-191.2 779,-169.2 605,-169.2"/>
<polygon fill="none" stroke="#000000" points="605,-169.2 605,-191.2 779,-191.2 779,-169.2 605,-169.2"/>
<text text-anchor="start" x="625" y="-176.3" font-family="Helvetica,sans-Serif" font-size="11.00" fill="#000000">sequence</text>
<polygon fill="none" stroke="#000000" points="605,-150.2 605,-169.2 779,-169.2 779,-150.2 605,-150.2"/>
<text text-anchor="start" x="608" y="-156.3" font-family="Helvetica,sans-Serif" font-size="11.00" fill="#000000">...</text>
<polygon fill="#ffffff" stroke="transparent" points="605,-131.2 605,-150.2 690,-150.2 690,-131.2 605,-131.2"/>
<polygon fill="none" stroke="#000000" points="605,-131.2 605,-150.2 690,-150.2 690,-131.2 605,-131.2"/>
<text text-anchor="start" x="608" y="-137.3" font-family="Helvetica,sans-Serif" font-size="11.00" fill="#000000">&lt; 1</text>
<polygon fill="#ffffff" stroke="transparent" points="690,-131.2 690,-150.2 734,-150.2 734,-131.2 690,-131.2"/>
<polygon fill="none" stroke="#000000" points="690,-131.2 690,-150.2 734,-150.2 734,-131.2 690,-131.2"/>
<text text-anchor="start" x="724.8862" y="-137.3" font-family="Helvetica,sans-Serif" font-size="11.00" fill="#000000"> &#160;</text>
<polygon fill="#ffffff" stroke="transparent" points="734,-131.2 734,-150.2 779,-150.2 779,-131.2 734,-131.2"/>
<polygon fill="none" stroke="#000000" points="734,-131.2 734,-150.2 779,-150.2 779,-131.2 734,-131.2"/>
<text text-anchor="start" x="769.8862" y="-137.3" font-family="Helvetica,sans-Serif" font-size="11.00" fill="#000000"> &#160;</text>
</a>
</g>
</g>
<!-- historical_response&#45;&gt;historical_question -->
<g id="edge2" class="edge">
<title>historical_response:w&#45;&gt;historical_question:e</title>
<path fill="none" stroke="#000000" d="M590.276,-202.2C578.2815,-202.2 570.8229,-202.2 554,-202.2"/>
<polygon fill="#000000" stroke="#000000" points="597,-202.2001 605,-205.8 601,-202.2 605,-202.2 605,-202.2 605,-202.2 601,-202.2 605,-198.6 597,-202.2001 597,-202.2001"/>
<ellipse fill="none" stroke="#000000" cx="593.8" cy="-202.2001" rx="3.2" ry="3.2"/>
</g>
</g>
</svg>
