<?xml version="1.0" encoding="UTF-8" standalone="no"?>
<!DOCTYPE svg PUBLIC "-//W3C//DTD SVG 1.1//EN"
 "http://www.w3.org/Graphics/SVG/1.1/DTD/svg11.dtd">
<!-- Generated by graphviz version 2.40.1 (20161225.0304)
 -->
<!-- Title: twoDegreesRelationshipsDiagram Pages: 1 -->
<svg width="519pt" height="765pt"
 viewBox="0.00 0.00 519.00 765.20" xmlns="http://www.w3.org/2000/svg" xmlns:xlink="http://www.w3.org/1999/xlink">
<g id="graph0" class="graph" transform="scale(1 1) rotate(0) translate(4 761.2)">
<title>twoDegreesRelationshipsDiagram</title>
<polygon fill="#ffffff" stroke="transparent" points="-4,4 -4,-761.2 515,-761.2 515,4 -4,4"/>
<text text-anchor="middle" x="72.4936" y="-7.3" font-family="Helvetica,sans-Serif" font-size="11.00" fill="#000000">Generated by SchemaSpy</text>
<!-- correction_request -->
<g id="node1" class="node">
<title>correction_request</title>
<g id="a_node1"><a xlink:href="../../tables/correction_request.html" xlink:title="correction_request" target="_top">
<polygon fill="#ffffff" stroke="transparent" points="300,-692.2 300,-753.2 466,-753.2 466,-692.2 300,-692.2"/>
<polygon fill="#f5f5f5" stroke="transparent" points="300,-729.7 300,-752.7 466,-752.7 466,-729.7 300,-729.7"/>
<polygon fill="none" stroke="#000000" points="300,-729.7 300,-752.7 466,-752.7 466,-729.7 300,-729.7"/>
<text text-anchor="start" x="305" y="-738.3" font-family="Helvetica,sans-Serif" font-weight="bold" font-size="11.00" fill="#000000">correction_request</text>
<text text-anchor="start" x="431.5219" y="-737.8" font-family="Helvetica,sans-Serif" font-size="11.00" fill="#000000">[table]</text>
<polygon fill="none" stroke="#000000" points="300,-710.7 300,-729.7 466,-729.7 466,-710.7 300,-710.7"/>
<text text-anchor="start" x="303" y="-716.8" font-family="Helvetica,sans-Serif" font-size="11.00" fill="#000000">...</text>
<polygon fill="#ffffff" stroke="transparent" points="300,-691.7 300,-710.7 381,-710.7 381,-691.7 300,-691.7"/>
<polygon fill="none" stroke="#000000" points="300,-691.7 300,-710.7 381,-710.7 381,-691.7 300,-691.7"/>
<text text-anchor="start" x="303" y="-697.8" font-family="Helvetica,sans-Serif" font-size="11.00" fill="#000000">&lt; 1</text>
<polygon fill="#ffffff" stroke="transparent" points="381,-691.7 381,-710.7 423,-710.7 423,-691.7 381,-691.7"/>
<polygon fill="none" stroke="#000000" points="381,-691.7 381,-710.7 423,-710.7 423,-691.7 381,-691.7"/>
<text text-anchor="start" x="413.8862" y="-697.8" font-family="Helvetica,sans-Serif" font-size="11.00" fill="#000000"> &#160;</text>
<polygon fill="#ffffff" stroke="transparent" points="423,-691.7 423,-710.7 466,-710.7 466,-691.7 423,-691.7"/>
<polygon fill="none" stroke="#000000" points="423,-691.7 423,-710.7 466,-710.7 466,-691.7 423,-691.7"/>
<text text-anchor="start" x="456.8862" y="-697.8" font-family="Helvetica,sans-Serif" font-size="11.00" fill="#000000"> &#160;</text>
</a>
</g>
</g>
<!-- report -->
<g id="node2" class="node">
<title>report</title>
<g id="a_node2"><a xlink:href="../../tables/report.html" xlink:title="report" target="_top">
<polygon fill="#ffffff" stroke="transparent" points="8,-183.2 8,-508.2 214,-508.2 214,-183.2 8,-183.2"/>
<polygon fill="#f5f5f5" stroke="transparent" points="8,-484.7 8,-507.7 214,-507.7 214,-484.7 8,-484.7"/>
<polygon fill="none" stroke="#000000" points="8,-484.7 8,-507.7 214,-507.7 214,-484.7 8,-484.7"/>
<text text-anchor="start" x="13" y="-493.3" font-family="Helvetica,sans-Serif" font-weight="bold" font-size="11.00" fill="#000000">report</text>
<text text-anchor="start" x="179.0437" y="-492.8" font-family="Helvetica,sans-Serif" font-size="11.00" fill="#000000">[table]</text>
<polygon fill="none" stroke="#000000" points="8,-462.7 8,-484.7 214,-484.7 214,-462.7 8,-462.7"/>
<image xlink:href="../../images/primaryKeys.png" width="11px" height="12px" preserveAspectRatio="xMinYMin meet" x="13" y="-479.7"/>
<text text-anchor="start" x="28" y="-469.8" font-family="Helvetica,sans-Serif" font-size="11.00" fill="#000000">id</text>
<polygon fill="#ffffff" stroke="transparent" points="8,-440.7 8,-462.7 214,-462.7 214,-440.7 8,-440.7"/>
<polygon fill="none" stroke="#000000" points="8,-440.7 8,-462.7 214,-462.7 214,-440.7 8,-440.7"/>
<text text-anchor="start" x="28" y="-447.8" font-family="Helvetica,sans-Serif" font-size="11.00" fill="#000000">report_reference</text>
<polygon fill="#ffffff" stroke="transparent" points="8,-418.7 8,-440.7 214,-440.7 214,-418.7 8,-418.7"/>
<polygon fill="none" stroke="#000000" points="8,-418.7 8,-440.7 214,-440.7 214,-418.7 8,-418.7"/>
<text text-anchor="start" x="28" y="-425.8" font-family="Helvetica,sans-Serif" font-size="11.00" fill="#000000">location</text>
<polygon fill="#ffffff" stroke="transparent" points="8,-396.7 8,-418.7 214,-418.7 214,-396.7 8,-396.7"/>
<polygon fill="none" stroke="#000000" points="8,-396.7 8,-418.7 214,-418.7 214,-396.7 8,-396.7"/>
<text text-anchor="start" x="28" y="-403.8" font-family="Helvetica,sans-Serif" font-size="11.00" fill="#000000">type</text>
<polygon fill="#ffffff" stroke="transparent" points="8,-374.7 8,-396.7 214,-396.7 214,-374.7 8,-374.7"/>
<polygon fill="none" stroke="#000000" points="8,-374.7 8,-396.7 214,-396.7 214,-374.7 8,-374.7"/>
<text text-anchor="start" x="28" y="-381.8" font-family="Helvetica,sans-Serif" font-size="11.00" fill="#000000">source</text>
<polygon fill="#ffffff" stroke="transparent" points="8,-352.7 8,-374.7 214,-374.7 214,-352.7 8,-352.7"/>
<polygon fill="none" stroke="#000000" points="8,-352.7 8,-374.7 214,-374.7 214,-352.7 8,-352.7"/>
<text text-anchor="start" x="28" y="-359.8" font-family="Helvetica,sans-Serif" font-size="11.00" fill="#000000">status</text>
<polygon fill="#ffffff" stroke="transparent" points="8,-330.7 8,-352.7 214,-352.7 214,-330.7 8,-330.7"/>
<polygon fill="none" stroke="#000000" points="8,-330.7 8,-352.7 214,-352.7 214,-330.7 8,-330.7"/>
<text text-anchor="start" x="28" y="-337.8" font-family="Helvetica,sans-Serif" font-size="11.00" fill="#000000">incident_date_and_time</text>
<polygon fill="#ffffff" stroke="transparent" points="8,-308.7 8,-330.7 214,-330.7 214,-308.7 8,-308.7"/>
<polygon fill="none" stroke="#000000" points="8,-308.7 8,-330.7 214,-330.7 214,-308.7 8,-308.7"/>
<text text-anchor="start" x="28" y="-315.8" font-family="Helvetica,sans-Serif" font-size="11.00" fill="#000000">reported_at</text>
<polygon fill="#ffffff" stroke="transparent" points="8,-286.7 8,-308.7 214,-308.7 214,-286.7 8,-286.7"/>
<polygon fill="none" stroke="#000000" points="8,-286.7 8,-308.7 214,-308.7 214,-286.7 8,-286.7"/>
<text text-anchor="start" x="28" y="-293.8" font-family="Helvetica,sans-Serif" font-size="11.00" fill="#000000">reported_by</text>
<polygon fill="#ffffff" stroke="transparent" points="8,-264.7 8,-286.7 214,-286.7 214,-264.7 8,-264.7"/>
<polygon fill="none" stroke="#000000" points="8,-264.7 8,-286.7 214,-286.7 214,-264.7 8,-264.7"/>
<text text-anchor="start" x="28" y="-271.8" font-family="Helvetica,sans-Serif" font-size="11.00" fill="#000000">created_at</text>
<polygon fill="none" stroke="#000000" points="8,-242.7 8,-264.7 214,-264.7 214,-242.7 8,-242.7"/>
<image xlink:href="../../images/foreignKeys.png" width="11px" height="12px" preserveAspectRatio="xMinYMin meet" x="13" y="-259.7"/>
<text text-anchor="start" x="28" y="-249.8" font-family="Helvetica,sans-Serif" font-size="11.00" fill="#000000">duplicated_report_id</text>
<polygon fill="#ffffff" stroke="transparent" points="8,-220.7 8,-242.7 214,-242.7 214,-220.7 8,-220.7"/>
<polygon fill="none" stroke="#000000" points="8,-220.7 8,-242.7 214,-242.7 214,-220.7 8,-220.7"/>
<text text-anchor="start" x="28" y="-227.8" font-family="Helvetica,sans-Serif" font-size="11.00" fill="#000000">last_user_action</text>
<polygon fill="none" stroke="#000000" points="8,-201.7 8,-220.7 214,-220.7 214,-201.7 8,-201.7"/>
<text text-anchor="start" x="11" y="-207.8" font-family="Helvetica,sans-Serif" font-size="11.00" fill="#000000">...</text>
<polygon fill="#ffffff" stroke="transparent" points="8,-182.7 8,-201.7 105,-201.7 105,-182.7 8,-182.7"/>
<polygon fill="none" stroke="#000000" points="8,-182.7 8,-201.7 105,-201.7 105,-182.7 8,-182.7"/>
<text text-anchor="start" x="11" y="-188.8" font-family="Helvetica,sans-Serif" font-size="11.00" fill="#000000">&lt; 1</text>
<polygon fill="#ffffff" stroke="transparent" points="105,-182.7 105,-201.7 155,-201.7 155,-182.7 105,-182.7"/>
<polygon fill="none" stroke="#000000" points="105,-182.7 105,-201.7 155,-201.7 155,-182.7 105,-182.7"/>
<text text-anchor="start" x="145.8862" y="-188.8" font-family="Helvetica,sans-Serif" font-size="11.00" fill="#000000"> &#160;</text>
<polygon fill="#ffffff" stroke="transparent" points="155,-182.7 155,-201.7 214,-201.7 214,-182.7 155,-182.7"/>
<polygon fill="none" stroke="#000000" points="155,-182.7 155,-201.7 214,-201.7 214,-182.7 155,-182.7"/>
<text text-anchor="start" x="195.4053" y="-188.8" font-family="Helvetica,sans-Serif" font-size="11.00" fill="#000000">8 &gt;</text>
</a>
</g>
</g>
<!-- correction_request&#45;&gt;report -->
<g id="edge1" class="edge">
<title>correction_request:w&#45;&gt;report:e</title>
<path fill="none" stroke="#000000" d="M285.4865,-717.5704C271.0278,-712.6037 265.3752,-699.3235 255,-681.7 231.0991,-641.1013 261.1116,-473.7 214,-473.7"/>
<polygon fill="#000000" stroke="#000000" points="292.0848,-718.5385 299.4773,-723.2619 296.0424,-719.1193 300,-719.7 300,-719.7 300,-719.7 296.0424,-719.1193 300.5227,-716.1381 292.0848,-718.5385 292.0848,-718.5385"/>
<ellipse fill="none" stroke="#000000" cx="288.9187" cy="-718.0739" rx="3.2" ry="3.2"/>
</g>
<!-- description_addendum -->
<g id="node3" class="node">
<title>description_addendum</title>
<g id="a_node3"><a xlink:href="../../tables/description_addendum.html" xlink:title="description_addendum" target="_top">
<polygon fill="#ffffff" stroke="transparent" points="287,-610.2 287,-671.2 479,-671.2 479,-610.2 287,-610.2"/>
<polygon fill="#f5f5f5" stroke="transparent" points="287,-647.7 287,-670.7 479,-670.7 479,-647.7 287,-647.7"/>
<polygon fill="none" stroke="#000000" points="287,-647.7 287,-670.7 479,-670.7 479,-647.7 287,-647.7"/>
<text text-anchor="start" x="292" y="-656.3" font-family="Helvetica,sans-Serif" font-weight="bold" font-size="11.00" fill="#000000">description_addendum</text>
<text text-anchor="start" x="444.5219" y="-655.8" font-family="Helvetica,sans-Serif" font-size="11.00" fill="#000000">[table]</text>
<polygon fill="none" stroke="#000000" points="287,-628.7 287,-647.7 479,-647.7 479,-628.7 287,-628.7"/>
<text text-anchor="start" x="290" y="-634.8" font-family="Helvetica,sans-Serif" font-size="11.00" fill="#000000">...</text>
<polygon fill="#ffffff" stroke="transparent" points="287,-609.7 287,-628.7 381,-628.7 381,-609.7 287,-609.7"/>
<polygon fill="none" stroke="#000000" points="287,-609.7 287,-628.7 381,-628.7 381,-609.7 287,-609.7"/>
<text text-anchor="start" x="290" y="-615.8" font-family="Helvetica,sans-Serif" font-size="11.00" fill="#000000">&lt; 1</text>
<polygon fill="#ffffff" stroke="transparent" points="381,-609.7 381,-628.7 430,-628.7 430,-609.7 381,-609.7"/>
<polygon fill="none" stroke="#000000" points="381,-609.7 381,-628.7 430,-628.7 430,-609.7 381,-609.7"/>
<text text-anchor="start" x="420.8862" y="-615.8" font-family="Helvetica,sans-Serif" font-size="11.00" fill="#000000"> &#160;</text>
<polygon fill="#ffffff" stroke="transparent" points="430,-609.7 430,-628.7 479,-628.7 479,-609.7 430,-609.7"/>
<polygon fill="none" stroke="#000000" points="430,-609.7 430,-628.7 479,-628.7 479,-609.7 430,-609.7"/>
<text text-anchor="start" x="469.8862" y="-615.8" font-family="Helvetica,sans-Serif" font-size="11.00" fill="#000000"> &#160;</text>
</a>
</g>
</g>
<!-- description_addendum&#45;&gt;report -->
<g id="edge2" class="edge">
<title>description_addendum:w&#45;&gt;report:e</title>
<path fill="none" stroke="#000000" d="M272.5222,-635.3816C218.5675,-615.4483 288.1739,-473.7 214,-473.7"/>
<polygon fill="#000000" stroke="#000000" points="279.1006,-636.435 286.4308,-641.2547 283.0503,-637.0675 287,-637.7 287,-637.7 287,-637.7 283.0503,-637.0675 287.5692,-634.1453 279.1006,-636.435 279.1006,-636.435"/>
<ellipse fill="none" stroke="#000000" cx="275.9409" cy="-635.929" rx="3.2" ry="3.2"/>
</g>
<!-- history -->
<g id="node4" class="node">
<title>history</title>
<g id="a_node4"><a xlink:href="../../tables/history.html" xlink:title="history" target="_top">
<polygon fill="#ffffff" stroke="transparent" points="340,-528.2 340,-589.2 426,-589.2 426,-528.2 340,-528.2"/>
<polygon fill="#f5f5f5" stroke="transparent" points="340,-565.7 340,-588.7 426,-588.7 426,-565.7 340,-565.7"/>
<polygon fill="none" stroke="#000000" points="340,-565.7 340,-588.7 426,-588.7 426,-565.7 340,-565.7"/>
<text text-anchor="start" x="345" y="-574.3" font-family="Helvetica,sans-Serif" font-weight="bold" font-size="11.00" fill="#000000">history</text>
<text text-anchor="start" x="391.5219" y="-573.8" font-family="Helvetica,sans-Serif" font-size="11.00" fill="#000000">[table]</text>
<polygon fill="none" stroke="#000000" points="340,-546.7 340,-565.7 426,-565.7 426,-546.7 340,-546.7"/>
<text text-anchor="start" x="343" y="-552.8" font-family="Helvetica,sans-Serif" font-size="11.00" fill="#000000">...</text>
<polygon fill="#ffffff" stroke="transparent" points="340,-527.7 340,-546.7 377,-546.7 377,-527.7 340,-527.7"/>
<polygon fill="none" stroke="#000000" points="340,-527.7 340,-546.7 377,-546.7 377,-527.7 340,-527.7"/>
<text text-anchor="start" x="343" y="-533.8" font-family="Helvetica,sans-Serif" font-size="11.00" fill="#000000">&lt; 1</text>
<polygon fill="#ffffff" stroke="transparent" points="377,-527.7 377,-546.7 397,-546.7 397,-527.7 377,-527.7"/>
<polygon fill="none" stroke="#000000" points="377,-527.7 377,-546.7 397,-546.7 397,-527.7 377,-527.7"/>
<text text-anchor="start" x="387.8862" y="-533.8" font-family="Helvetica,sans-Serif" font-size="11.00" fill="#000000"> &#160;</text>
<polygon fill="#ffffff" stroke="transparent" points="397,-527.7 397,-546.7 426,-546.7 426,-527.7 397,-527.7"/>
<polygon fill="none" stroke="#000000" points="397,-527.7 397,-546.7 426,-546.7 426,-527.7 397,-527.7"/>
<text text-anchor="start" x="407.4053" y="-533.8" font-family="Helvetica,sans-Serif" font-size="11.00" fill="#000000">1 &gt;</text>
</a>
</g>
</g>
<!-- history&#45;&gt;report -->
<g id="edge3" class="edge">
<title>history:w&#45;&gt;report:e</title>
<path fill="none" stroke="#000000" d="M325.4458,-555.0134C295.6589,-551.9384 284.3264,-538.6603 255,-517.7 233.2538,-502.1574 240.7296,-473.7 214,-473.7"/>
<polygon fill="#000000" stroke="#000000" points="332.0089,-555.3229 339.8303,-559.296 336.0044,-555.5115 340,-555.7 340,-555.7 340,-555.7 336.0044,-555.5115 340.1697,-552.104 332.0089,-555.3229 332.0089,-555.3229"/>
<ellipse fill="none" stroke="#000000" cx="328.8124" cy="-555.1721" rx="3.2" ry="3.2"/>
</g>
<!-- prisoner_involvement -->
<g id="node5" class="node">
<title>prisoner_involvement</title>
<g id="a_node5"><a xlink:href="../../tables/prisoner_involvement.html" xlink:title="prisoner_involvement" target="_top">
<polygon fill="#ffffff" stroke="transparent" points="290.5,-446.2 290.5,-507.2 475.5,-507.2 475.5,-446.2 290.5,-446.2"/>
<polygon fill="#f5f5f5" stroke="transparent" points="291,-483.7 291,-506.7 476,-506.7 476,-483.7 291,-483.7"/>
<polygon fill="none" stroke="#000000" points="291,-483.7 291,-506.7 476,-506.7 476,-483.7 291,-483.7"/>
<text text-anchor="start" x="296" y="-492.3" font-family="Helvetica,sans-Serif" font-weight="bold" font-size="11.00" fill="#000000">prisoner_involvement</text>
<text text-anchor="start" x="441.5219" y="-491.8" font-family="Helvetica,sans-Serif" font-size="11.00" fill="#000000">[table]</text>
<polygon fill="none" stroke="#000000" points="291,-464.7 291,-483.7 476,-483.7 476,-464.7 291,-464.7"/>
<text text-anchor="start" x="294" y="-470.8" font-family="Helvetica,sans-Serif" font-size="11.00" fill="#000000">...</text>
<polygon fill="#ffffff" stroke="transparent" points="291,-445.7 291,-464.7 382,-464.7 382,-445.7 291,-445.7"/>
<polygon fill="none" stroke="#000000" points="291,-445.7 291,-464.7 382,-464.7 382,-445.7 291,-445.7"/>
<text text-anchor="start" x="294" y="-451.8" font-family="Helvetica,sans-Serif" font-size="11.00" fill="#000000">&lt; 1</text>
<polygon fill="#ffffff" stroke="transparent" points="382,-445.7 382,-464.7 429,-464.7 429,-445.7 382,-445.7"/>
<polygon fill="none" stroke="#000000" points="382,-445.7 382,-464.7 429,-464.7 429,-445.7 382,-445.7"/>
<text text-anchor="start" x="419.8862" y="-451.8" font-family="Helvetica,sans-Serif" font-size="11.00" fill="#000000"> &#160;</text>
<polygon fill="#ffffff" stroke="transparent" points="429,-445.7 429,-464.7 476,-464.7 476,-445.7 429,-445.7"/>
<polygon fill="none" stroke="#000000" points="429,-445.7 429,-464.7 476,-464.7 476,-445.7 429,-445.7"/>
<text text-anchor="start" x="466.8862" y="-451.8" font-family="Helvetica,sans-Serif" font-size="11.00" fill="#000000"> &#160;</text>
</a>
</g>
</g>
<!-- prisoner_involvement&#45;&gt;report -->
<g id="edge4" class="edge">
<title>prisoner_involvement:w&#45;&gt;report:e</title>
<path fill="none" stroke="#000000" d="M276.3215,-473.7C253.379,-473.7 242.7413,-473.7 214,-473.7"/>
<polygon fill="#000000" stroke="#000000" points="283,-473.7001 291,-477.3 287,-473.7 291,-473.7 291,-473.7 291,-473.7 287,-473.7 291,-470.1 283,-473.7001 283,-473.7001"/>
<ellipse fill="none" stroke="#000000" cx="279.8" cy="-473.7001" rx="3.2" ry="3.2"/>
</g>
<!-- question -->
<g id="node6" class="node">
<title>question</title>
<g id="a_node6"><a xlink:href="../../tables/question.html" xlink:title="question" target="_top">
<polygon fill="#ffffff" stroke="transparent" points="334,-364.2 334,-425.2 432,-425.2 432,-364.2 334,-364.2"/>
<polygon fill="#f5f5f5" stroke="transparent" points="334,-401.7 334,-424.7 432,-424.7 432,-401.7 334,-401.7"/>
<polygon fill="none" stroke="#000000" points="334,-401.7 334,-424.7 432,-424.7 432,-401.7 334,-401.7"/>
<text text-anchor="start" x="339" y="-410.3" font-family="Helvetica,sans-Serif" font-weight="bold" font-size="11.00" fill="#000000">question</text>
<text text-anchor="start" x="397.5219" y="-409.8" font-family="Helvetica,sans-Serif" font-size="11.00" fill="#000000">[table]</text>
<polygon fill="none" stroke="#000000" points="334,-382.7 334,-401.7 432,-401.7 432,-382.7 334,-382.7"/>
<text text-anchor="start" x="337" y="-388.8" font-family="Helvetica,sans-Serif" font-size="11.00" fill="#000000">...</text>
<polygon fill="#ffffff" stroke="transparent" points="334,-363.7 334,-382.7 377,-382.7 377,-363.7 334,-363.7"/>
<polygon fill="none" stroke="#000000" points="334,-363.7 334,-382.7 377,-382.7 377,-363.7 334,-363.7"/>
<text text-anchor="start" x="337" y="-369.8" font-family="Helvetica,sans-Serif" font-size="11.00" fill="#000000">&lt; 1</text>
<polygon fill="#ffffff" stroke="transparent" points="377,-363.7 377,-382.7 400,-382.7 400,-363.7 377,-363.7"/>
<polygon fill="none" stroke="#000000" points="377,-363.7 377,-382.7 400,-382.7 400,-363.7 377,-363.7"/>
<text text-anchor="start" x="390.8862" y="-369.8" font-family="Helvetica,sans-Serif" font-size="11.00" fill="#000000"> &#160;</text>
<polygon fill="#ffffff" stroke="transparent" points="400,-363.7 400,-382.7 432,-382.7 432,-363.7 400,-363.7"/>
<polygon fill="none" stroke="#000000" points="400,-363.7 400,-382.7 432,-382.7 432,-363.7 400,-363.7"/>
<text text-anchor="start" x="413.4053" y="-369.8" font-family="Helvetica,sans-Serif" font-size="11.00" fill="#000000">1 &gt;</text>
</a>
</g>
</g>
<!-- question&#45;&gt;report -->
<g id="edge5" class="edge">
<title>question:w&#45;&gt;report:e</title>
<path fill="none" stroke="#000000" d="M319.2635,-392.7997C291.6015,-397.3365 283.0793,-415.3212 255,-435.7 234.8923,-450.2934 238.8452,-473.7 214,-473.7"/>
<polygon fill="#000000" stroke="#000000" points="326.0222,-392.2954 334.2679,-395.29 330.0111,-391.9977 334,-391.7 334,-391.7 334,-391.7 330.0111,-391.9977 333.7321,-388.11 326.0222,-392.2954 326.0222,-392.2954"/>
<ellipse fill="none" stroke="#000000" cx="322.8311" cy="-392.5335" rx="3.2" ry="3.2"/>
</g>
<!-- staff_involvement -->
<g id="node7" class="node">
<title>staff_involvement</title>
<g id="a_node7"><a xlink:href="../../tables/staff_involvement.html" xlink:title="staff_involvement" target="_top">
<polygon fill="#ffffff" stroke="transparent" points="263,-120.7 263,-342.7 503,-342.7 503,-120.7 263,-120.7"/>
<polygon fill="#f5f5f5" stroke="transparent" points="265,-317.7 265,-340.7 501,-340.7 501,-317.7 265,-317.7"/>
<polygon fill="none" stroke="#000000" points="265,-317.7 265,-340.7 501,-340.7 501,-317.7 265,-317.7"/>
<text text-anchor="start" x="270" y="-326.3" font-family="Helvetica,sans-Serif" font-weight="bold" font-size="11.00" fill="#000000">staff_involvement</text>
<text text-anchor="start" x="466.0437" y="-325.8" font-family="Helvetica,sans-Serif" font-size="11.00" fill="#000000">[table]</text>
<polygon fill="none" stroke="#000000" points="265,-295.7 265,-317.7 407,-317.7 407,-295.7 265,-295.7"/>
<image xlink:href="../../images/primaryKeys.png" width="11px" height="12px" preserveAspectRatio="xMinYMin meet" x="270" y="-312.7"/>
<text text-anchor="start" x="285" y="-302.8" font-family="Helvetica,sans-Serif" font-size="11.00" fill="#000000">id</text>
<polygon fill="none" stroke="#000000" points="407,-295.7 407,-317.7 501,-317.7 501,-295.7 407,-295.7"/>
<text text-anchor="start" x="410" y="-303.4" font-family="Helvetica,sans-Serif" font-size="11.00" fill="#000000">serial[10]</text>
<polygon fill="#ffffff" stroke="transparent" points="265,-273.7 265,-295.7 407,-295.7 407,-273.7 265,-273.7"/>
<polygon fill="none" stroke="#000000" points="265,-273.7 265,-295.7 407,-295.7 407,-273.7 265,-273.7"/>
<image xlink:href="../../images/foreignKeys.png" width="11px" height="12px" preserveAspectRatio="xMinYMin meet" x="270" y="-290.7"/>
<text text-anchor="start" x="285" y="-280.8" font-family="Helvetica,sans-Serif" font-size="11.00" fill="#000000">report_id</text>
<polygon fill="none" stroke="#000000" points="407,-273.7 407,-295.7 501,-295.7 501,-273.7 407,-273.7"/>
<text text-anchor="start" x="409.9758" y="-281.4" font-family="Helvetica,sans-Serif" font-size="11.00" fill="#000000">uuid[2147483647]</text>
<polygon fill="#ffffff" stroke="transparent" points="265,-251.7 265,-273.7 407,-273.7 407,-251.7 265,-251.7"/>
<polygon fill="none" stroke="#000000" points="265,-251.7 265,-273.7 407,-273.7 407,-251.7 265,-251.7"/>
<text text-anchor="start" x="285" y="-258.8" font-family="Helvetica,sans-Serif" font-size="11.00" fill="#000000">staff_username</text>
<polygon fill="none" stroke="#000000" points="407,-251.7 407,-273.7 501,-273.7 501,-251.7 407,-251.7"/>
<text text-anchor="start" x="410" y="-259.4" font-family="Helvetica,sans-Serif" font-size="11.00" fill="#000000">varchar[120]</text>
<polygon fill="none" stroke="#000000" points="265,-229.7 265,-251.7 407,-251.7 407,-229.7 265,-229.7"/>
<text text-anchor="start" x="285" y="-236.8" font-family="Helvetica,sans-Serif" font-size="11.00" fill="#000000">staff_role</text>
<polygon fill="none" stroke="#000000" points="407,-229.7 407,-251.7 501,-251.7 501,-229.7 407,-229.7"/>
<text text-anchor="start" x="410" y="-237.4" font-family="Helvetica,sans-Serif" font-size="11.00" fill="#000000">varchar[60]</text>
<polygon fill="none" stroke="#000000" points="265,-207.7 265,-229.7 407,-229.7 407,-207.7 265,-207.7"/>
<text text-anchor="start" x="285" y="-214.8" font-family="Helvetica,sans-Serif" font-size="11.00" fill="#000000">comment</text>
<polygon fill="none" stroke="#000000" points="407,-207.7 407,-229.7 501,-229.7 501,-207.7 407,-207.7"/>
<text text-anchor="start" x="410" y="-215.4" font-family="Helvetica,sans-Serif" font-size="11.00" fill="#000000">text[2147483647]</text>
<polygon fill="#ffffff" stroke="transparent" points="265,-185.7 265,-207.7 407,-207.7 407,-185.7 265,-185.7"/>
<polygon fill="none" stroke="#000000" points="265,-185.7 265,-207.7 407,-207.7 407,-185.7 265,-185.7"/>
<text text-anchor="start" x="285" y="-192.8" font-family="Helvetica,sans-Serif" font-size="11.00" fill="#000000">sequence</text>
<polygon fill="none" stroke="#000000" points="407,-185.7 407,-207.7 501,-207.7 501,-185.7 407,-185.7"/>
<text text-anchor="start" x="410" y="-193.4" font-family="Helvetica,sans-Serif" font-size="11.00" fill="#000000">int4[10]</text>
<polygon fill="none" stroke="#000000" points="265,-163.7 265,-185.7 407,-185.7 407,-163.7 265,-163.7"/>
<text text-anchor="start" x="285" y="-170.8" font-family="Helvetica,sans-Serif" font-size="11.00" fill="#000000">first_name</text>
<polygon fill="none" stroke="#000000" points="407,-163.7 407,-185.7 501,-185.7 501,-163.7 407,-163.7"/>
<text text-anchor="start" x="410" y="-171.4" font-family="Helvetica,sans-Serif" font-size="11.00" fill="#000000">varchar[255]</text>
<polygon fill="none" stroke="#000000" points="265,-141.7 265,-163.7 407,-163.7 407,-141.7 265,-141.7"/>
<text text-anchor="start" x="285" y="-148.8" font-family="Helvetica,sans-Serif" font-size="11.00" fill="#000000">last_name</text>
<polygon fill="none" stroke="#000000" points="407,-141.7 407,-163.7 501,-163.7 501,-141.7 407,-141.7"/>
<text text-anchor="start" x="410" y="-149.4" font-family="Helvetica,sans-Serif" font-size="11.00" fill="#000000">varchar[255]</text>
<polygon fill="#ffffff" stroke="transparent" points="265,-122.7 265,-141.7 340,-141.7 340,-122.7 265,-122.7"/>
<polygon fill="none" stroke="#000000" points="265,-122.7 265,-141.7 340,-141.7 340,-122.7 265,-122.7"/>
<text text-anchor="start" x="268" y="-128.8" font-family="Helvetica,sans-Serif" font-size="11.00" fill="#000000">&lt; 1</text>
<polygon fill="#ffffff" stroke="transparent" points="340,-122.7 340,-141.7 407,-141.7 407,-122.7 340,-122.7"/>
<polygon fill="none" stroke="#000000" points="340,-122.7 340,-141.7 407,-141.7 407,-122.7 340,-122.7"/>
<text text-anchor="start" x="397.8862" y="-128.8" font-family="Helvetica,sans-Serif" font-size="11.00" fill="#000000"> &#160;</text>
<polygon fill="#ffffff" stroke="transparent" points="407,-122.7 407,-141.7 501,-141.7 501,-122.7 407,-122.7"/>
<polygon fill="none" stroke="#000000" points="407,-122.7 407,-141.7 501,-141.7 501,-122.7 407,-122.7"/>
<text text-anchor="start" x="482.4053" y="-128.8" font-family="Helvetica,sans-Serif" font-size="11.00" fill="#000000">0 &gt;</text>
<polygon fill="none" stroke="#000000" stroke-width="2" points="264,-121.7 264,-341.7 502,-341.7 502,-121.7 264,-121.7"/>
</a>
</g>
</g>
<!-- staff_involvement&#45;&gt;report -->
<g id="edge6" class="edge">
<title>staff_involvement:w&#45;&gt;report:e</title>
<path fill="none" stroke="#000000" d="M250.6817,-286.9542C192.9797,-308.2781 295.3968,-473.7 214,-473.7"/>
<polygon fill="#000000" stroke="#000000" points="257.0973,-285.9442 265.5599,-288.2562 261.0487,-285.3221 265,-284.7 265,-284.7 265,-284.7 261.0487,-285.3221 264.4401,-281.1438 257.0973,-285.9442 257.0973,-285.9442"/>
<ellipse fill="none" stroke="#000000" cx="253.9363" cy="-286.4419" rx="3.2" ry="3.2"/>
</g>
<!-- status_history -->
<g id="node8" class="node">
<title>status_history</title>
<g id="a_node8"><a xlink:href="../../tables/status_history.html" xlink:title="status_history" target="_top">
<polygon fill="#ffffff" stroke="transparent" points="316,-38.2 316,-99.2 450,-99.2 450,-38.2 316,-38.2"/>
<polygon fill="#f5f5f5" stroke="transparent" points="316,-75.7 316,-98.7 450,-98.7 450,-75.7 316,-75.7"/>
<polygon fill="none" stroke="#000000" points="316,-75.7 316,-98.7 450,-98.7 450,-75.7 316,-75.7"/>
<text text-anchor="start" x="321" y="-84.3" font-family="Helvetica,sans-Serif" font-weight="bold" font-size="11.00" fill="#000000">status_history</text>
<text text-anchor="start" x="415.5219" y="-83.8" font-family="Helvetica,sans-Serif" font-size="11.00" fill="#000000">[table]</text>
<polygon fill="none" stroke="#000000" points="316,-56.7 316,-75.7 450,-75.7 450,-56.7 316,-56.7"/>
<text text-anchor="start" x="319" y="-62.8" font-family="Helvetica,sans-Serif" font-size="11.00" fill="#000000">...</text>
<polygon fill="#ffffff" stroke="transparent" points="316,-37.7 316,-56.7 381,-56.7 381,-37.7 316,-37.7"/>
<polygon fill="none" stroke="#000000" points="316,-37.7 316,-56.7 381,-56.7 381,-37.7 316,-37.7"/>
<text text-anchor="start" x="319" y="-43.8" font-family="Helvetica,sans-Serif" font-size="11.00" fill="#000000">&lt; 1</text>
<polygon fill="#ffffff" stroke="transparent" points="381,-37.7 381,-56.7 415,-56.7 415,-37.7 381,-37.7"/>
<polygon fill="none" stroke="#000000" points="381,-37.7 381,-56.7 415,-56.7 415,-37.7 381,-37.7"/>
<text text-anchor="start" x="405.8862" y="-43.8" font-family="Helvetica,sans-Serif" font-size="11.00" fill="#000000"> &#160;</text>
<polygon fill="#ffffff" stroke="transparent" points="415,-37.7 415,-56.7 450,-56.7 450,-37.7 415,-37.7"/>
<polygon fill="none" stroke="#000000" points="415,-37.7 415,-56.7 450,-56.7 450,-37.7 415,-37.7"/>
<text text-anchor="start" x="440.8862" y="-43.8" font-family="Helvetica,sans-Serif" font-size="11.00" fill="#000000"> &#160;</text>
</a>
</g>
</g>
<!-- status_history&#45;&gt;report -->
<g id="edge7" class="edge">
<title>status_history:w&#45;&gt;report:e</title>
<path fill="none" stroke="#000000" d="M301.479,-66.9077C278.7962,-71.1121 269.1531,-86.1999 255,-110.7 214.3932,-180.9937 295.1796,-473.7 214,-473.7"/>
<polygon fill="#000000" stroke="#000000" points="308.0275,-66.3631 316.2984,-69.2876 312.0138,-66.0316 316,-65.7 316,-65.7 316,-65.7 312.0138,-66.0316 315.7016,-62.1124 308.0275,-66.3631 308.0275,-66.3631"/>
<ellipse fill="none" stroke="#000000" cx="304.8385" cy="-66.6284" rx="3.2" ry="3.2"/>
</g>
</g>
</svg>
